SolideMirageMono.ufo
<glyph name="exclam" format="1">
  <advance width="465"/>
  <unicode hex="0021"/>
  <outline>
    <contour>
      <point x="111" y="215" type="line"/>
      <point x="101" y="750" type="line"/>
      <point x="148" y="750" type="line"/>
      <point x="138" y="215" type="line"/>
    </contour>
    <contour>
      <point x="111" y="-50" type="line"/>
      <point x="111" y="169" type="line"/>
      <point x="138" y="169" type="line"/>
      <point x="138" y="-50" type="line"/>
    </contour>
  </outline>
</glyph>
<glyph name="numbersign" format="1">
  <advance width="930"/>
  <unicode hex="0023"/>
  <outline>
    <contour>
      <point x="845" y="486" type="line"/>
      <point x="85" y="486" type="line"/>
      <point x="85" y="513" type="line"/>
      <point x="845" y="513" type="line"/>
    </contour>
    <contour>
      <point x="845" y="246" type="line"/>
      <point x="85" y="246" type="line"/>
      <point x="85" y="273" type="line"/>
      <point x="845" y="273" type="line"/>
    </contour>
    <contour>
      <point x="429" y="750" type="line"/>
      <point x="257" y="0" type="line"/>
      <point x="229" y="0" type="line"/>
      <point x="400" y="750" type="line"/>
    </contour>
    <contour>
      <point x="695" y="750" type="line"/>
      <point x="523" y="0" type="line"/>
      <point x="495" y="0" type="line"/>
      <point x="666" y="750" type="line"/>
    </contour>
  </outline>
</glyph>
<glyph name="dollar" format="1">
  <advance width="930"/>
  <unicode hex="0024"/>
  <outline>
    <contour>
      <point x="405" y="-87" type="line"/>
      <point x="432" y="-87" type="line"/>
      <point x="432" y="840" type="line"/>
      <point x="405" y="840" type="line"/>
    </contour>
    <contour>
      <point x="498" y="-87" type="line"/>
      <point x="525" y="-87" type="line"/>
      <point x="525" y="840" type="line"/>
      <point x="498" y="840" type="line"/>
    </contour>
    <component base="S"/>
  </outline>
</glyph>
<glyph name="asterisk" format="1">
  <advance width="465"/>
  <unicode hex="002A"/>
  <outline>
    <contour>
      <point x="222" y="579" type="line"/>
      <point x="222" y="655"/>
      <point x="202" y="688"/>
      <point x="177" y="721" type="curve"/>
      <point x="177" y="745"/>
      <point x="197" y="770"/>
      <point x="232" y="770" type="curve" smooth="yes"/>
      <point x="268" y="770"/>
      <point x="288" y="745"/>
      <point x="288" y="721" type="curve"/>
      <point x="263" y="688"/>
      <point x="242" y="655"/>
      <point x="242" y="579" type="curve"/>
      <point x="232" y="579" type="line"/>
    </contour>
    <contour>
      <point x="229" y="570" type="line"/>
      <point x="156" y="593"/>
      <point x="118" y="584"/>
      <point x="79" y="570" type="curve"/>
      <point x="56" y="578"/>
      <point x="39" y="604"/>
      <point x="49" y="638" type="curve" smooth="yes"/>
      <point x="61" y="672"/>
      <point x="90" y="683"/>
      <point x="113" y="676" type="curve"/>
      <point x="137" y="642"/>
      <point x="163" y="612"/>
      <point x="235" y="588" type="curve"/>
      <point x="232" y="579" type="line"/>
    </contour>
    <contour>
      <point x="235" y="570" type="curve"/>
      <point x="232" y="579" type="line"/>
      <point x="229" y="588" type="line"/>
      <point x="301" y="612"/>
      <point x="327" y="642"/>
      <point x="351" y="676" type="curve"/>
      <point x="374" y="683"/>
      <point x="403" y="672"/>
      <point x="415" y="638" type="curve" smooth="yes"/>
      <point x="425" y="604"/>
      <point x="408" y="578"/>
      <point x="385" y="570" type="curve"/>
      <point x="346" y="584"/>
      <point x="308" y="593"/>
    </contour>
    <contour>
      <point x="240" y="573" type="line"/>
      <point x="195" y="511"/>
      <point x="192" y="471"/>
      <point x="193" y="430" type="curve"/>
      <point x="179" y="411"/>
      <point x="148" y="402"/>
      <point x="119" y="423" type="curve" smooth="yes"/>
      <point x="90" y="444"/>
      <point x="89" y="476"/>
      <point x="103" y="495" type="curve"/>
      <point x="143" y="507"/>
      <point x="179" y="523"/>
      <point x="224" y="585" type="curve"/>
      <point x="232" y="579" type="line"/>
    </contour>
    <contour>
      <point x="224" y="573" type="curve"/>
      <point x="232" y="579" type="line"/>
      <point x="240" y="585" type="line"/>
      <point x="285" y="523"/>
      <point x="321" y="507"/>
      <point x="361" y="495" type="curve"/>
      <point x="375" y="476"/>
      <point x="374" y="444"/>
      <point x="345" y="423" type="curve" smooth="yes"/>
      <point x="316" y="402"/>
      <point x="285" y="411"/>
      <point x="271" y="430" type="curve"/>
      <point x="272" y="471"/>
      <point x="269" y="511"/>
    </contour>
  </outline>
</glyph>
<glyph name="comma" format="1">
  <advance width="465"/>
  <unicode hex="002C"/>
  <outline>
    <contour>
      <point x="173" y="243" type="line"/>
      <point x="91" y="-50" type="line"/>
      <point x="65" y="-43" type="line"/>
      <point x="152" y="270" type="line"/>
    </contour>
    <contour>
      <point x="173" y="243" type="line"/>
      <point x="66" y="243" type="line"/>
      <point x="66" y="270" type="line"/>
      <point x="173" y="270" type="line"/>
    </contour>
  </outline>
</glyph>
<glyph name="hyphen" format="1">
  <advance width="465"/>
  <unicode hex="002D"/>
  <outline>
    <contour>
      <point x="395" y="398" type="line"/>
      <point x="70" y="398" type="line"/>
      <point x="70" y="425" type="line"/>
      <point x="395" y="425" type="line"/>
    </contour>
  </outline>
</glyph>
<glyph name="slash" format="1">
  <advance width="465"/>
  <unicode hex="002F"/>
  <outline>
    <contour>
      <point x="131" y="0" type="line"/>
      <point x="366" y="750" type="line"/>
      <point x="335" y="750" type="line"/>
      <point x="100" y="0" type="line" smooth="yes"/>
    </contour>
  </outline>
</glyph>
<glyph name="one" format="1">
  <advance width="930"/>
  <unicode hex="0031"/>
  <outline>
    <contour>
      <point x="529" y="0" type="line"/>
      <point x="401" y="0" type="line"/>
      <point x="401" y="534" type="line"/>
      <point x="454" y="616" type="line"/>
      <point x="473" y="710" type="line"/>
      <point x="481" y="770" type="line"/>
      <point x="529" y="770" type="line"/>
    </contour>
    <contour>
      <point x="840" y="25" type="line"/>
      <point x="840" y="0" type="line"/>
      <point x="509" y="0" type="line"/>
      <point x="509" y="25" type="line"/>
    </contour>
    <contour>
      <point x="425" y="0" type="line"/>
      <point x="90" y="0" type="line"/>
      <point x="90" y="25" type="line"/>
      <point x="425" y="25" type="line"/>
    </contour>
    <contour>
      <point x="494" y="770" type="line"/>
      <point x="454" y="485"/>
      <point x="316" y="388"/>
      <point x="106" y="388" type="curve"/>
      <point x="106" y="415" type="line"/>
      <point x="294" y="415"/>
      <point x="431" y="500"/>
      <point x="476" y="770" type="curve"/>
    </contour>
  </outline>
</glyph>
<glyph name="two" format="1">
  <advance width="930"/>
  <unicode hex="0032"/>
  <outline>
    <contour>
      <point x="165" y="750" type="line"/>
      <point x="165" y="397" type="line"/>
      <point x="140" y="397" type="line"/>
      <point x="140" y="750" type="line"/>
    </contour>
    <contour>
      <point x="110" y="0" type="line"/>
      <point x="126" y="189"/>
      <point x="197" y="225"/>
      <point x="310" y="293" type="curve" smooth="yes"/>
      <point x="537" y="429"/>
      <point x="646" y="452"/>
      <point x="646" y="576" type="curve" smooth="yes"/>
      <point x="646" y="698"/>
      <point x="574" y="746"/>
      <point x="423" y="743" type="curve"/>
      <point x="270" y="743"/>
      <point x="170" y="644"/>
      <point x="170" y="429" type="curve"/>
      <point x="170" y="397" type="line"/>
      <point x="142" y="397" type="line"/>
      <point x="142" y="434" type="line" smooth="yes"/>
      <point x="142" y="647"/>
      <point x="240" y="770"/>
      <point x="439" y="770" type="curve"/>
      <point x="648" y="770"/>
      <point x="786" y="709"/>
      <point x="786" y="572" type="curve" smooth="yes"/>
      <point x="786" y="365"/>
      <point x="536" y="388"/>
      <point x="323" y="269" type="curve" smooth="yes"/>
      <point x="205" y="203"/>
      <point x="154" y="172"/>
      <point x="139" y="0" type="curve"/>
    </contour>
    <contour>
      <point x="156" y="102" type="curve"/>
      <point x="168" y="168" type="line"/>
      <point x="168" y="168"/>
      <point x="198" y="188"/>
      <point x="207" y="193" type="curve"/>
      <point x="235" y="216"/>
      <point x="279" y="230"/>
      <point x="332" y="230" type="curve" smooth="yes"/>
      <point x="445" y="230"/>
      <point x="617" y="80"/>
      <point x="711" y="80" type="curve" smooth="yes"/>
      <point x="769" y="80"/>
      <point x="797" y="122"/>
      <point x="797" y="228" type="curve" smooth="yes"/>
      <point x="797" y="347" type="line"/>
      <point x="823" y="347" type="line"/>
      <point x="823" y="232" type="line" smooth="yes"/>
      <point x="823" y="81"/>
      <point x="776" y="-20"/>
      <point x="658" y="-20" type="curve" smooth="yes"/>
      <point x="511" y="-20"/>
      <point x="286" y="166"/>
      <point x="218" y="166" type="curve" smooth="yes"/>
      <point x="190" y="166"/>
      <point x="173" y="149"/>
    </contour>
  </outline>
</glyph>
<glyph name="three" format="1">
  <advance width="930"/>
  <unicode hex="0033"/>
  <outline>
    <contour>
      <point x="794" y="727" type="line"/>
      <point x="225" y="349" type="line" smooth="yes"/>
      <point x="213" y="370" type="line"/>
      <point x="745" y="728" type="line"/>
    </contour>
    <contour>
      <point x="660" y="239" type="curve" smooth="yes"/>
      <point x="660" y="422"/>
      <point x="631" y="475"/>
      <point x="530" y="475" type="curve" smooth="yes"/>
      <point x="436" y="475"/>
      <point x="385" y="461"/>
      <point x="280" y="386" type="curve"/>
      <point x="270" y="403" type="line"/>
      <point x="349" y="468"/>
      <point x="444" y="500"/>
      <point x="533" y="501" type="curve" smooth="yes"/>
      <point x="682" y="503"/>
      <point x="800" y="410"/>
      <point x="800" y="255" type="curve" smooth="yes"/>
      <point x="800" y="77"/>
      <point x="676" y="-20"/>
      <point x="473" y="-20" type="curve" smooth="yes"/>
      <point x="213" y="-20"/>
      <point x="132" y="86"/>
      <point x="132" y="264" type="curve"/>
      <point x="159" y="264" type="line"/>
      <point x="159" y="113"/>
      <point x="216" y="8"/>
      <point x="454" y="8" type="curve" smooth="yes"/>
      <point x="593" y="8"/>
      <point x="660" y="86"/>
    </contour>
    <contour>
      <point x="144" y="412" type="line"/>
      <point x="144" y="750" type="line"/>
      <point x="794" y="750" type="line"/>
      <point x="794" y="727" type="line"/>
      <point x="636" y="633" type="line" smooth="yes"/>
      <point x="233" y="633" type="line" smooth="yes"/>
      <point x="189" y="633"/>
      <point x="169" y="612"/>
      <point x="169" y="557" type="curve" smooth="yes"/>
      <point x="169" y="412" type="line"/>
    </contour>
  </outline>
</glyph>
<glyph name="four" format="1">
  <advance width="930"/>
  <unicode hex="0034"/>
  <outline>
    <contour>
      <point x="689" y="723" type="line"/>
      <point x="252" y="237" type="line"/>
      <point x="87" y="237" type="line"/>
      <point x="544" y="750" type="line"/>
      <point x="689" y="750" type="line"/>
    </contour>
    <contour>
      <point x="811" y="210" type="line"/>
      <point x="87" y="210" type="line"/>
      <point x="87" y="237" type="line"/>
      <point x="811" y="237" type="line"/>
    </contour>
    <contour>
      <point x="576" y="3" type="line"/>
      <point x="448" y="3" type="line"/>
      <point x="448" y="270" type="line"/>
      <point x="557" y="388" type="line"/>
      <point x="576" y="388" type="line"/>
    </contour>
    <contour>
      <point x="214" y="0" type="line"/>
      <point x="214" y="25" type="line"/>
      <point x="810" y="25" type="line"/>
      <point x="810" y="0" type="line"/>
    </contour>
  </outline>
</glyph>
<glyph name="five" format="1">
  <advance width="930"/>
  <unicode hex="0035"/>
  <outline>
    <contour>
      <point x="140" y="311" type="line"/>
      <point x="167" y="311" type="line"/>
      <point x="197" y="750" type="line"/>
      <point x="170" y="750" type="line"/>
    </contour>
    <contour>
      <point x="147" y="261" type="curve"/>
      <point x="120" y="261" type="line"/>
      <point x="120" y="78"/>
      <point x="239" y="-20"/>
      <point x="444" y="-20" type="curve" smooth="yes"/>
      <point x="693" y="-20"/>
      <point x="810" y="77"/>
      <point x="810" y="258" type="curve" smooth="yes"/>
      <point x="810" y="440"/>
      <point x="698" y="540"/>
      <point x="450" y="540" type="curve" smooth="yes"/>
      <point x="247" y="540"/>
      <point x="151" y="456"/>
      <point x="140" y="311" type="curve"/>
      <point x="167" y="311" type="line"/>
      <point x="178" y="441"/>
      <point x="258" y="513"/>
      <point x="449" y="513" type="curve" smooth="yes"/>
      <point x="611" y="513"/>
      <point x="670" y="436"/>
      <point x="670" y="257" type="curve" smooth="yes"/>
      <point x="670" y="85"/>
      <point x="608" y="7"/>
      <point x="444" y="7" type="curve" smooth="yes"/>
      <point x="259" y="7"/>
      <point x="147" y="87"/>
    </contour>
    <contour>
      <point x="744" y="515" type="line"/>
      <point x="744" y="750" type="line"/>
      <point x="170" y="750" type="line"/>
      <point x="170" y="727" type="line"/>
      <point x="189" y="633" type="line"/>
      <point x="655" y="633" type="line" smooth="yes"/>
      <point x="699" y="633"/>
      <point x="719" y="612"/>
      <point x="719" y="557" type="curve" smooth="yes"/>
      <point x="719" y="515" type="line"/>
    </contour>
  </outline>
</glyph>
<glyph name="six" format="1">
  <advance width="930"/>
  <unicode hex="0036"/>
  <outline>
    <contour>
      <point x="489" y="7" type="curve"/>
      <point x="313" y="7"/>
      <point x="274" y="108"/>
      <point x="274" y="242" type="curve" smooth="yes"/>
      <point x="274" y="257" type="line" smooth="yes"/>
      <point x="274" y="405"/>
      <point x="370" y="444"/>
      <point x="490" y="444" type="curve" smooth="yes"/>
      <point x="641" y="444"/>
      <point x="675" y="405"/>
      <point x="675" y="229" type="curve" smooth="yes"/>
      <point x="675" y="56"/>
      <point x="634" y="7"/>
    </contour>
    <contour>
      <point x="116" y="382" type="curve" smooth="yes"/>
      <point x="116" y="58"/>
      <point x="305" y="-20"/>
      <point x="488" y="-20" type="curve" smooth="yes"/>
      <point x="707" y="-20"/>
      <point x="815" y="68"/>
      <point x="815" y="226" type="curve" smooth="yes"/>
      <point x="815" y="384"/>
      <point x="707" y="471"/>
      <point x="488" y="471" type="curve" smooth="yes"/>
      <point x="340" y="471"/>
      <point x="284" y="404"/>
      <point x="274" y="373" type="curve"/>
      <point x="274" y="407" type="line" smooth="yes"/>
      <point x="274" y="642"/>
      <point x="331" y="743"/>
      <point x="491" y="743" type="curve" smooth="yes"/>
      <point x="661" y="743"/>
      <point x="743" y="656"/>
      <point x="743" y="501" type="curve"/>
      <point x="770" y="501" type="line"/>
      <point x="770" y="671"/>
      <point x="673" y="770"/>
      <point x="490" y="770" type="curve" smooth="yes"/>
      <point x="232" y="770"/>
      <point x="116" y="664"/>
    </contour>
  </outline>
</glyph>
<glyph name="seven" format="1">
  <advance width="930"/>
  <unicode hex="0037"/>
  <outline>
    <contour>
      <point x="837" y="728" type="line"/>
      <point x="759" y="629" type="line" smooth="yes"/>
      <point x="548.2208500388026" y="361.4726173569418"/>
      <point x="493" y="255.94505494505495"/>
      <point x="493" y="77" type="curve" smooth="yes"/>
      <point x="493" y="7" type="line"/>
      <point x="365" y="5" type="line"/>
      <point x="365" y="77" type="line" smooth="yes"/>
      <point x="365" y="258.96363636363634"/>
      <point x="493" y="375"/>
      <point x="734" y="633" type="curve"/>
    </contour>
    <contour>
      <point x="635" y="0" type="line"/>
      <point x="233" y="0" type="line"/>
      <point x="233" y="25" type="line"/>
      <point x="635" y="25" type="line"/>
    </contour>
    <contour>
      <point x="135" y="352" type="line"/>
      <point x="135" y="750" type="line"/>
      <point x="837" y="750" type="line"/>
      <point x="837" y="728" type="line"/>
      <point x="760" y="633" type="line" smooth="yes"/>
      <point x="288" y="633" type="line" smooth="yes"/>
      <point x="194" y="633"/>
      <point x="160" y="597"/>
      <point x="160" y="511" type="curve" smooth="yes"/>
      <point x="160" y="352" type="line"/>
    </contour>
  </outline>
</glyph>
<glyph name="eight" format="1">
  <advance width="930"/>
  <unicode hex="0038"/>
  <outline>
    <contour>
      <point x="777" y="569" type="curve" smooth="yes"/>
      <point x="777" y="709"/>
      <point x="627" y="770"/>
      <point x="460" y="770" type="curve" smooth="yes"/>
      <point x="302" y="770"/>
      <point x="128" y="701"/>
      <point x="128" y="569" type="curve" smooth="yes"/>
      <point x="128" y="446"/>
      <point x="211" y="383"/>
      <point x="426" y="321" type="curve" smooth="yes"/>
      <point x="649" y="256"/>
      <point x="694" y="231"/>
      <point x="694" y="132" type="curve"/>
      <point x="694" y="54"/>
      <point x="635" y="7"/>
      <point x="468" y="7" type="curve" smooth="yes"/>
      <point x="287" y="7"/>
      <point x="147" y="62"/>
      <point x="147" y="199" type="curve" smooth="yes"/>
      <point x="147" y="302"/>
      <point x="228" y="336"/>
      <point x="337" y="351" type="curve"/>
      <point x="314" y="370" type="line"/>
      <point x="204" y="356"/>
      <point x="119" y="307"/>
      <point x="119" y="195" type="curve" smooth="yes"/>
      <point x="119" y="52"/>
      <point x="266" y="-20"/>
      <point x="472" y="-20" type="curve" smooth="yes"/>
      <point x="663" y="-20"/>
      <point x="824" y="46"/>
      <point x="824" y="180" type="curve" smooth="yes"/>
      <point x="824" y="288"/>
      <point x="763" y="359"/>
      <point x="494" y="435" type="curve" smooth="yes"/>
      <point x="294" y="491"/>
      <point x="254" y="515"/>
      <point x="254" y="610" type="curve" smooth="yes"/>
      <point x="254" y="707"/>
      <point x="327" y="743"/>
      <point x="475" y="743" type="curve" smooth="yes"/>
      <point x="617" y="743"/>
      <point x="750" y="678"/>
      <point x="750" y="569" type="curve" smooth="yes"/>
      <point x="750" y="459"/>
      <point x="693" y="425"/>
      <point x="550" y="409" type="curve"/>
      <point x="570" y="391" type="line"/>
      <point x="689" y="403"/>
      <point x="777" y="437"/>
    </contour>
  </outline>
</glyph>
<glyph name="nine" format="1">
  <advance width="930"/>
  <unicode hex="0039"/>
  <outline>
    <contour>
      <point x="447" y="743" type="curve"/>
      <point x="619" y="743"/>
      <point x="657" y="642"/>
      <point x="657" y="508" type="curve" smooth="yes"/>
      <point x="657" y="493" type="line" smooth="yes"/>
      <point x="657" y="345"/>
      <point x="563" y="306"/>
      <point x="446" y="306" type="curve" smooth="yes"/>
      <point x="299" y="306"/>
      <point x="266" y="345"/>
      <point x="266" y="521" type="curve" smooth="yes"/>
      <point x="266" y="694"/>
      <point x="306" y="743"/>
    </contour>
    <contour>
      <point x="815" y="368" type="curve" smooth="yes"/>
      <point x="815" y="692"/>
      <point x="628" y="770"/>
      <point x="448" y="770" type="curve" smooth="yes"/>
      <point x="232" y="770"/>
      <point x="126" y="682"/>
      <point x="126" y="524" type="curve" smooth="yes"/>
      <point x="126" y="366"/>
      <point x="232" y="279"/>
      <point x="448" y="279" type="curve" smooth="yes"/>
      <point x="592" y="279"/>
      <point x="647" y="346"/>
      <point x="657" y="377" type="curve"/>
      <point x="657" y="343" type="line" smooth="yes"/>
      <point x="657" y="108"/>
      <point x="597" y="7"/>
      <point x="430" y="7" type="curve" smooth="yes"/>
      <point x="247" y="7"/>
      <point x="158" y="94"/>
      <point x="158" y="249" type="curve"/>
      <point x="131" y="249" type="line"/>
      <point x="131" y="79"/>
      <point x="235" y="-20"/>
      <point x="431" y="-20" type="curve" smooth="yes"/>
      <point x="696" y="-20"/>
      <point x="815" y="86"/>
    </contour>
  </outline>
</glyph>
<glyph name="A" format="1">
  <advance width="890"/>
  <unicode hex="0041"/>
  <outline>
    <contour>
      <point x="785" y="0" type="line"/>
      <point x="658" y="0" type="line"/>
      <point x="385" y="750" type="line"/>
      <point x="512" y="750" type="line"/>
    </contour>
    <contour>
      <point x="850" y="25" type="line"/>
      <point x="850" y="0" type="line"/>
      <point x="508" y="0" type="line"/>
      <point x="508" y="25" type="line"/>
    </contour>
    <contour>
      <point x="286" y="0" type="line"/>
      <point x="286" y="25" type="line"/>
      <point x="40" y="25" type="line"/>
      <point x="40" y="0" type="line"/>
    </contour>
    <contour>
      <point x="372" y="750" type="line"/>
      <point x="403" y="750" type="line" smooth="yes"/>
      <point x="141" y="25" type="line"/>
      <point x="110" y="25" type="line"/>
    </contour>
    <contour>
      <point x="477" y="750" type="line"/>
      <point x="477" y="725" type="line"/>
      <point x="190" y="725" type="line"/>
      <point x="190" y="750" type="line"/>
    </contour>
    <contour>
      <point x="606" y="262" type="line"/>
      <point x="606" y="235" type="line"/>
      <point x="214" y="235" type="line"/>
      <point x="214" y="262" type="line"/>
    </contour>
    <contour>
      <point x="394.0" y="750.0" type="move" name="top"/>
    </contour>
  </outline>
</glyph>
<glyph name="B" format="1">
  <advance width="912"/>
  <unicode hex="0042"/>
  <outline>
    <contour>
      <point x="313" y="0" type="line"/>
      <point x="185" y="0" type="line"/>
      <point x="185" y="750" type="line"/>
      <point x="313" y="750" type="line"/>
    </contour>
    <contour>
      <point x="257" y="0" type="line"/>
      <point x="81" y="0" type="line"/>
      <point x="81" y="25" type="line"/>
      <point x="257" y="25" type="line"/>
    </contour>
    <contour>
      <point x="81" y="725" type="line"/>
      <point x="81" y="750" type="line"/>
      <point x="257" y="750" type="line"/>
      <point x="257" y="725" type="line"/>
    </contour>
    <contour>
      <point x="332" y="399" type="line"/>
      <point x="555" y="399" type="line" smooth="yes"/>
      <point x="691" y="399"/>
      <point x="831" y="336"/>
      <point x="831" y="198" type="curve" smooth="yes"/>
      <point x="831" y="63"/>
      <point x="706" y="0"/>
      <point x="564" y="0" type="curve" smooth="yes"/>
      <point x="303" y="0" type="line"/>
      <point x="303" y="27" type="line"/>
      <point x="503" y="27" type="line"/>
      <point x="643" y="27"/>
      <point x="691" y="70"/>
      <point x="691" y="197" type="curve" smooth="yes"/>
      <point x="691" y="326"/>
      <point x="642" y="372"/>
      <point x="503" y="372" type="curve" smooth="yes"/>
      <point x="332" y="372" type="line"/>
    </contour>
    <contour>
      <point x="272" y="372" type="line"/>
      <point x="272" y="399" type="line"/>
      <point x="443" y="399" type="line" smooth="yes"/>
      <point x="587" y="399"/>
      <point x="631" y="437"/>
      <point x="631" y="563" type="curve" smooth="yes"/>
      <point x="631" y="683"/>
      <point x="584" y="723"/>
      <point x="443" y="723" type="curve" smooth="yes"/>
      <point x="273" y="723" type="line"/>
      <point x="273" y="750" type="line"/>
      <point x="504" y="750" type="line" smooth="yes"/>
      <point x="646" y="750"/>
      <point x="771" y="691"/>
      <point x="771" y="562" type="curve" smooth="yes"/>
      <point x="771" y="433"/>
      <point x="606" y="372"/>
      <point x="445" y="372" type="curve" smooth="yes"/>
    </contour>
  </outline>
</glyph>
<glyph name="D" format="1">
  <advance width="930"/>
  <unicode hex="0044"/>
  <outline>
    <contour>
      <point x="322" y="0" type="line"/>
      <point x="194" y="0" type="line"/>
      <point x="194" y="750" type="line"/>
      <point x="322" y="750" type="line"/>
    </contour>
    <contour>
      <point x="266" y="0" type="line"/>
      <point x="90" y="0" type="line"/>
      <point x="90" y="25" type="line"/>
      <point x="266" y="25" type="line"/>
    </contour>
    <contour>
      <point x="90" y="724" type="line"/>
      <point x="90" y="750" type="line"/>
      <point x="266" y="750" type="line"/>
      <point x="266" y="724" type="line"/>
    </contour>
    <contour>
      <point x="312" y="750" type="line"/>
      <point x="471" y="750" type="line" smooth="yes"/>
      <point x="715" y="750"/>
      <point x="840" y="642"/>
      <point x="840" y="375" type="curve"/>
      <point x="840" y="108"/>
      <point x="715" y="0"/>
      <point x="474" y="0" type="curve" smooth="yes"/>
      <point x="313" y="0" type="line"/>
      <point x="313" y="28" type="line"/>
      <point x="454" y="28" type="line" smooth="yes"/>
      <point x="634" y="28"/>
      <point x="700" y="127"/>
      <point x="700" y="374" type="curve" smooth="yes"/>
      <point x="700" y="622"/>
      <point x="633" y="722"/>
      <point x="452" y="722" type="curve" smooth="yes"/>
      <point x="312" y="722" type="line"/>
    </contour>
  </outline>
</glyph>
<glyph name="E" format="1">
  <advance width="930"/>
  <unicode hex="0045"/>
  <outline>
    <contour>
      <point x="322" y="0" type="line"/>
      <point x="194" y="0" type="line"/>
      <point x="194" y="750" type="line"/>
      <point x="322" y="750" type="line"/>
    </contour>
    <contour>
      <point x="266" y="0" type="line"/>
      <point x="90" y="0" type="line"/>
      <point x="90" y="25" type="line"/>
      <point x="266" y="25" type="line"/>
    </contour>
    <contour>
      <point x="90" y="725" type="line"/>
      <point x="90" y="750" type="line"/>
      <point x="266" y="750" type="line"/>
      <point x="266" y="725" type="line"/>
    </contour>
    <contour>
      <point x="590" y="394" type="line"/>
      <point x="590" y="367" type="line"/>
      <point x="289" y="367" type="line"/>
      <point x="289" y="394" type="line"/>
    </contour>
    <contour>
      <point x="781" y="461" type="line"/>
      <point x="756" y="461" type="line"/>
      <point x="756" y="566" type="line" smooth="yes"/>
      <point x="756" y="694"/>
      <point x="729" y="723"/>
      <point x="599" y="723" type="curve" smooth="yes"/>
      <point x="298" y="723" type="line"/>
      <point x="298" y="750" type="line"/>
      <point x="781" y="750" type="line"/>
    </contour>
    <contour>
      <point x="800" y="289" type="line"/>
      <point x="800" y="0" type="line"/>
      <point x="298" y="0" type="line"/>
      <point x="298" y="27" type="line"/>
      <point x="598" y="27" type="line" smooth="yes"/>
      <point x="742" y="27"/>
      <point x="775" y="60"/>
      <point x="775" y="194" type="curve" smooth="yes"/>
      <point x="775" y="289" type="line"/>
    </contour>
    <contour>
      <point x="576" y="202" type="line"/>
      <point x="576" y="545" type="line"/>
      <point x="601" y="545" type="line"/>
      <point x="601" y="202" type="line"/>
    </contour>
    <contour>
      <point x="482" y="750" type="move" name="top"/>
    </contour>
  </outline>
</glyph>
<glyph name="F" format="1">
  <advance width="930"/>
  <unicode hex="0046"/>
  <outline>
    <contour>
      <point x="322" y="750" type="line"/>
      <point x="322" y="0" type="line"/>
      <point x="194" y="0" type="line"/>
      <point x="194" y="750" type="line"/>
    </contour>
    <contour>
      <point x="266" y="750" type="line"/>
      <point x="266" y="725" type="line"/>
      <point x="90" y="725" type="line"/>
      <point x="90" y="750" type="line"/>
    </contour>
    <contour>
      <point x="90" y="25" type="line"/>
      <point x="510" y="25" type="line"/>
      <point x="510" y="0" type="line"/>
      <point x="90" y="0" type="line"/>
    </contour>
    <contour>
      <point x="615" y="296" type="line"/>
      <point x="309" y="296" type="line"/>
      <point x="309" y="323" type="line"/>
      <point x="615" y="323" type="line"/>
    </contour>
    <contour>
      <point x="601" y="481" type="line"/>
      <point x="626" y="481" type="line"/>
      <point x="626" y="138" type="line"/>
      <point x="601" y="138" type="line"/>
    </contour>
    <contour>
      <point x="810" y="411" type="line"/>
      <point x="785" y="411" type="line"/>
      <point x="785" y="556" type="line" smooth="yes"/>
      <point x="785" y="690"/>
      <point x="752" y="723"/>
      <point x="608" y="723" type="curve" smooth="yes"/>
      <point x="308" y="723" type="line"/>
      <point x="308" y="750" type="line"/>
      <point x="810" y="750" type="line"/>
    </contour>
  </outline>
</glyph>
<glyph name="G" format="1">
  <advance width="930"/>
  <unicode hex="0047"/>
  <outline>
    <contour>
      <point x="840" y="293" type="line"/>
      <point x="840" y="318" type="line"/>
      <point x="568" y="318" type="line"/>
      <point x="568" y="293" type="line"/>
    </contour>
    <contour>
      <point x="780" y="421" type="line"/>
      <point x="780" y="750" type="line"/>
      <point x="755" y="750" type="line"/>
      <point x="755" y="421" type="line"/>
    </contour>
    <contour>
      <point x="840" y="1" type="line"/>
      <point x="840" y="311" type="line"/>
      <point x="815" y="311" type="line"/>
      <point x="815" y="1" type="line"/>
    </contour>
    <contour>
      <point x="815" y="311" type="line"/>
      <point x="815" y="105"/>
      <point x="694" y="9"/>
      <point x="496" y="9" type="curve" smooth="yes"/>
      <point x="293" y="9"/>
      <point x="230" y="110"/>
      <point x="230" y="367" type="curve" smooth="yes"/>
      <point x="230" y="640"/>
      <point x="286" y="743"/>
      <point x="481" y="743" type="curve" smooth="yes"/>
      <point x="666" y="743"/>
      <point x="755" y="629"/>
      <point x="755" y="421" type="curve"/>
      <point x="780" y="421" type="line"/>
      <point x="780" y="643"/>
      <point x="677" y="770"/>
      <point x="480" y="770" type="curve" smooth="yes"/>
      <point x="211" y="770"/>
      <point x="90" y="627"/>
      <point x="90" y="368" type="curve" smooth="yes"/>
      <point x="90" y="116"/>
      <point x="219" y="-20"/>
      <point x="496" y="-20" type="curve" smooth="yes"/>
      <point x="714" y="-20"/>
      <point x="840" y="96"/>
      <point x="840" y="311" type="curve"/>
    </contour>
  </outline>
</glyph>
<glyph name="H" format="1">
  <advance width="930"/>
  <unicode hex="0048"/>
  <outline>
    <contour>
      <point x="322" y="3" type="line"/>
      <point x="194" y="3" type="line"/>
      <point x="194" y="750" type="line"/>
      <point x="322" y="750" type="line"/>
    </contour>
    <contour>
      <point x="717" y="404" type="line"/>
      <point x="717" y="377" type="line"/>
      <point x="301" y="377" type="line"/>
      <point x="301" y="404" type="line"/>
    </contour>
    <contour>
      <point x="494" y="725" type="line"/>
      <point x="494" y="750" type="line"/>
      <point x="840" y="750" type="line"/>
      <point x="840" y="725" type="line"/>
    </contour>
    <contour>
      <point x="436" y="750" type="line"/>
      <point x="436" y="725" type="line"/>
      <point x="90" y="725" type="line"/>
      <point x="90" y="750" type="line"/>
    </contour>
    <contour>
      <point x="736" y="3" type="line"/>
      <point x="608" y="3" type="line"/>
      <point x="608" y="750" type="line"/>
      <point x="736" y="750" type="line"/>
    </contour>
    <contour>
      <point x="494" y="0" type="line"/>
      <point x="494" y="25" type="line"/>
      <point x="840" y="25" type="line"/>
      <point x="840" y="0" type="line"/>
    </contour>
    <contour>
      <point x="436" y="25" type="line"/>
      <point x="436" y="0" type="line"/>
      <point x="90" y="0" type="line"/>
      <point x="90" y="25" type="line"/>
    </contour>
  </outline>
</glyph>
<glyph name="I" format="1">
  <advance width="930"/>
  <unicode hex="0049"/>
  <outline>
    <contour>
      <point x="529" y="0" type="line"/>
      <point x="401" y="0" type="line"/>
      <point x="401" y="750" type="line"/>
      <point x="529" y="750" type="line"/>
    </contour>
    <contour>
      <point x="839" y="25" type="line"/>
      <point x="839" y="0" type="line"/>
      <point x="507" y="0" type="line"/>
      <point x="507" y="25" type="line"/>
    </contour>
    <contour>
      <point x="423" y="0" type="line"/>
      <point x="90" y="0" type="line"/>
      <point x="90" y="25" type="line"/>
      <point x="423" y="25" type="line"/>
    </contour>
    <contour>
      <point x="90" y="725" type="line"/>
      <point x="90" y="750" type="line"/>
      <point x="428" y="750" type="line"/>
      <point x="428" y="725" type="line"/>
    </contour>
    <contour>
      <point x="840" y="750" type="line"/>
      <point x="840" y="726" type="line"/>
      <point x="507" y="726" type="line"/>
      <point x="507" y="750" type="line"/>
    </contour>
    <contour>
      <point x="465" y="750" type="move" name="top"/>
    </contour>
  </outline>
</glyph>
<glyph name="J" format="1">
  <advance width="930"/>
  <unicode hex="004A"/>
  <outline>
    <contour>
      <point x="646" y="750" type="line"/>
      <point x="646" y="725" type="line"/>
      <point x="870" y="725" type="line"/>
      <point x="870" y="750" type="line"/>
    </contour>
    <contour>
      <point x="180" y="725" type="line"/>
      <point x="564" y="725" type="line"/>
      <point x="564" y="750" type="line"/>
      <point x="180" y="750" type="line"/>
    </contour>
    <contour>
      <point x="372" y="7" type="curve" smooth="yes"/>
      <point x="232.81578947368422" y="7.0"/>
      <point x="114" y="144.00000000000003"/>
      <point x="114" y="361" type="curve" smooth="yes"/>
      <point x="114" y="413" type="line"/>
      <point x="89" y="413" type="line"/>
      <point x="89" y="359" type="line" smooth="yes"/>
      <point x="89" y="303.3636363636364"/>
      <point x="97" y="252"/>
      <point x="110" y="206" type="curve" smooth="yes"/>
      <point x="150.38541665197542" y="64.65104171808605"/>
      <point x="263.5725806451613" y="-20.0"/>
      <point x="388" y="-20" type="curve" smooth="yes"/>
      <point x="547" y="-20"/>
      <point x="669" y="54"/>
      <point x="669" y="279" type="curve" smooth="yes"/>
      <point x="669" y="750" type="line"/>
      <point x="541" y="750" type="line"/>
      <point x="541" y="278" type="line" smooth="yes"/>
      <point x="541" y="70"/>
      <point x="502" y="7"/>
    </contour>
    <contour>
      <point x="89" y="413" type="line"/>
      <point x="89" y="0" type="line"/>
      <point x="114" y="0" type="line"/>
      <point x="114" y="413" type="line"/>
    </contour>
  </outline>
</glyph>
<glyph name="K" format="1">
  <advance width="930"/>
  <unicode hex="004B"/>
  <outline>
    <contour>
      <point x="448" y="0" type="line"/>
      <point x="90" y="0" type="line"/>
      <point x="90" y="25" type="line"/>
      <point x="448" y="25" type="line"/>
    </contour>
    <contour>
      <point x="90" y="724" type="line"/>
      <point x="90" y="750" type="line"/>
      <point x="448" y="750" type="line"/>
      <point x="448" y="724" type="line"/>
    </contour>
    <contour>
      <point x="759" y="750" type="line"/>
      <point x="468" y="366" type="line"/>
      <point x="434" y="366" type="line"/>
      <point x="725" y="750" type="line"/>
    </contour>
    <contour>
      <point x="845" y="725" type="line"/>
      <point x="596" y="725" type="line"/>
      <point x="596" y="750" type="line"/>
      <point x="845" y="750" type="line"/>
    </contour>
    <contour>
      <point x="428" y="386" type="line"/>
      <point x="743" y="386"/>
      <point x="641" y="27"/>
      <point x="769" y="27" type="curve" smooth="yes"/>
      <point x="811" y="27"/>
      <point x="831" y="48"/>
      <point x="831" y="103" type="curve" smooth="yes"/>
      <point x="831" y="210" type="line"/>
      <point x="856" y="210" type="line"/>
      <point x="856" y="103" type="line" smooth="yes"/>
      <point x="856" y="19"/>
      <point x="809" y="-20"/>
      <point x="725" y="-20" type="curve" smooth="yes"/>
      <point x="451" y="-20"/>
      <point x="628" y="359"/>
      <point x="415" y="359" type="curve"/>
    </contour>
    <contour>
      <point x="322" y="0" type="line"/>
      <point x="194" y="0" type="line"/>
      <point x="194" y="750" type="line"/>
      <point x="322" y="750" type="line"/>
    </contour>
    <contour>
      <point x="437" y="359" type="line"/>
      <point x="221" y="359" type="line"/>
      <point x="221" y="386" type="line"/>
      <point x="437" y="386" type="line"/>
    </contour>
  </outline>
</glyph>
<glyph name="L" format="1">
  <advance width="930"/>
  <unicode hex="004C"/>
  <outline>
    <contour>
      <point x="309" y="25" type="line"/>
      <point x="309" y="0" type="line"/>
      <point x="90" y="0" type="line"/>
      <point x="90" y="25" type="line"/>
    </contour>
    <contour>
      <point x="322" y="750" type="line"/>
      <point x="322" y="11" type="line"/>
      <point x="194" y="11" type="line"/>
      <point x="194" y="750" type="line"/>
    </contour>
    <contour>
      <point x="217" y="750" type="line"/>
      <point x="217" y="725" type="line"/>
      <point x="91" y="725" type="line"/>
      <point x="91" y="750" type="line"/>
    </contour>
    <contour>
      <point x="820" y="339" type="line"/>
      <point x="820" y="0" type="line"/>
      <point x="298" y="0" type="line"/>
      <point x="298" y="27" type="line"/>
      <point x="618" y="27" type="line" smooth="yes"/>
      <point x="762" y="27"/>
      <point x="795" y="60"/>
      <point x="795" y="194" type="curve" smooth="yes"/>
      <point x="795" y="339" type="line"/>
    </contour>
    <contour>
      <point x="445" y="725" type="line"/>
      <point x="298" y="725" type="line"/>
      <point x="298" y="750" type="line"/>
      <point x="445" y="750" type="line"/>
    </contour>
  </outline>
</glyph>
<glyph name="M" format="1">
  <advance width="930"/>
  <unicode hex="004D"/>
  <outline>
    <contour>
      <point x="597" y="750" type="line"/>
      <point x="419" y="-20" type="line"/>
      <point x="450" y="-20" type="line"/>
      <point x="628" y="750" type="line"/>
    </contour>
    <contour>
      <point x="622" y="750" type="line"/>
      <point x="692" y="0" type="line"/>
      <point x="819" y="0" type="line"/>
      <point x="749" y="750" type="line"/>
    </contour>
    <contour>
      <point x="222" y="750" type="line"/>
      <point x="150" y="20" type="line"/>
      <point x="181" y="20" type="line"/>
      <point x="253" y="750" type="line"/>
    </contour>
    <contour>
      <point x="247" y="750" type="line"/>
      <point x="420" y="-20" type="line"/>
      <point x="441" y="-20" type="line"/>
      <point x="488" y="216" type="line"/>
      <point x="376" y="750" type="line"/>
    </contour>
    <contour>
      <point x="355" y="750" type="line"/>
      <point x="115" y="750" type="line"/>
      <point x="115" y="725" type="line"/>
      <point x="355" y="725" type="line"/>
    </contour>
    <contour>
      <point x="844" y="750" type="line"/>
      <point x="605" y="750" type="line"/>
      <point x="605" y="725" type="line"/>
      <point x="844" y="725" type="line"/>
    </contour>
    <contour>
      <point x="900" y="25" type="line"/>
      <point x="583" y="25" type="line"/>
      <point x="583" y="0" type="line"/>
      <point x="900" y="0" type="line"/>
    </contour>
    <contour>
      <point x="291" y="25" type="line"/>
      <point x="70" y="25" type="line"/>
      <point x="70" y="0" type="line"/>
      <point x="291" y="0" type="line"/>
    </contour>
  </outline>
</glyph>
<glyph name="N" format="1">
  <advance width="930"/>
  <unicode hex="004E"/>
  <outline>
    <contour>
      <point x="339" y="0" type="line"/>
      <point x="339" y="25" type="line"/>
      <point x="90" y="25" type="line"/>
      <point x="90" y="0" type="line"/>
    </contour>
    <contour>
      <point x="729" y="-20" type="line"/>
      <point x="756" y="-20" type="line"/>
      <point x="756" y="730" type="line"/>
      <point x="729" y="730" type="line"/>
    </contour>
    <contour>
      <point x="184" y="7" type="line"/>
      <point x="212" y="7" type="line"/>
      <point x="212" y="724" type="line"/>
      <point x="728" y="-20" type="line"/>
      <point x="746" y="175" type="line"/>
      <point x="349" y="750" type="line"/>
      <point x="184" y="750" type="line"/>
    </contour>
    <contour>
      <point x="326" y="725" type="line"/>
      <point x="326" y="750" type="line"/>
      <point x="90" y="750" type="line"/>
      <point x="90" y="725" type="line"/>
    </contour>
    <contour>
      <point x="850" y="725" type="line"/>
      <point x="850" y="750" type="line"/>
      <point x="600" y="750" type="line"/>
      <point x="600" y="725" type="line"/>
    </contour>
    <contour>
      <point x="468.0" y="750.0" type="move" name="top"/>
    </contour>
  </outline>
</glyph>
<glyph name="O" format="1">
  <advance width="930"/>
  <unicode hex="004F"/>
  <outline>
    <contour>
      <point x="464" y="770" type="curve" smooth="yes"/>
      <point x="216" y="770"/>
      <point x="90" y="627"/>
      <point x="90" y="368" type="curve" smooth="yes"/>
      <point x="90" y="117"/>
      <point x="219" y="-20"/>
      <point x="464" y="-20" type="curve" smooth="yes"/>
      <point x="709" y="-20"/>
      <point x="840" y="117"/>
      <point x="840" y="368" type="curve" smooth="yes"/>
      <point x="840" y="627"/>
      <point x="714" y="770"/>
    </contour>
    <contour>
      <point x="464" y="745" type="curve" smooth="yes"/>
      <point x="639" y="745"/>
      <point x="700.0" y="641.4521276595744"/>
      <point x="700" y="367" type="curve" smooth="yes"/>
      <point x="700.0" y="108.5722222222222"/>
      <point x="635" y="5"/>
      <point x="464" y="5" type="curve" smooth="yes"/>
      <point x="293" y="5"/>
      <point x="230.0" y="108.5722222222222"/>
      <point x="230" y="367" type="curve" smooth="yes"/>
      <point x="230.0" y="641.4521276595744"/>
      <point x="289" y="745"/>
    </contour>
    <contour>
      <point x="464.0" y="750.0" type="move" name="top"/>
    </contour>
  </outline>
</glyph>
<glyph name="P" format="1">
  <advance width="930"/>
  <unicode hex="0050"/>
  <outline>
    <contour>
      <point x="322" y="750" type="line"/>
      <point x="322" y="0" type="line"/>
      <point x="194" y="0" type="line"/>
      <point x="194" y="750" type="line"/>
    </contour>
    <contour>
      <point x="266" y="750" type="line"/>
      <point x="266" y="725" type="line"/>
      <point x="90" y="725" type="line"/>
      <point x="90" y="750" type="line"/>
    </contour>
    <contour>
      <point x="90" y="25" type="line"/>
      <point x="266" y="25" type="line"/>
      <point x="266" y="0" type="line"/>
      <point x="90" y="0" type="line"/>
    </contour>
    <contour>
      <point x="291" y="321" type="line"/>
      <point x="291" y="321"/>
      <point x="291" y="332"/>
      <point x="291" y="348" type="curve"/>
      <point x="512" y="348" type="line" smooth="yes"/>
      <point x="650" y="348"/>
      <point x="700" y="398"/>
      <point x="700" y="538" type="curve" smooth="yes"/>
      <point x="700" y="676"/>
      <point x="652" y="723"/>
      <point x="512" y="723" type="curve"/>
      <point x="292" y="723" type="line"/>
      <point x="292" y="750" type="line"/>
      <point x="573" y="750" type="line" smooth="yes"/>
      <point x="715" y="750"/>
      <point x="840" y="683"/>
      <point x="840" y="537" type="curve"/>
      <point x="840" y="389"/>
      <point x="700" y="321"/>
      <point x="564" y="321" type="curve"/>
    </contour>
    <contour>
      <point x="288" y="25" type="line"/>
      <point x="494" y="25" type="line"/>
      <point x="494" y="0" type="line"/>
      <point x="288" y="0" type="line"/>
    </contour>
  </outline>
</glyph>
<glyph name="Q" format="1">
  <advance width="930"/>
  <unicode hex="0051"/>
  <outline>
    <contour>
      <point x="433" y="255" type="curve" smooth="yes"/>
      <point x="352" y="255"/>
      <point x="290" y="198"/>
      <point x="290" y="129" type="curve" smooth="yes"/>
      <point x="290" y="98"/>
      <point x="300" y="65"/>
      <point x="328" y="27" type="curve"/>
      <point x="385" y="14" type="line"/>
      <point x="341.8459335613079" y="28.0501611660858"/>
      <point x="317.0" y="78.3177570093458"/>
      <point x="317" y="125" type="curve" smooth="yes"/>
      <point x="317" y="179"/>
      <point x="350" y="229"/>
      <point x="420" y="229" type="curve" smooth="yes"/>
      <point x="633" y="229"/>
      <point x="486" y="-250"/>
      <point x="730" y="-250" type="curve" smooth="yes"/>
      <point x="814" y="-250"/>
      <point x="861" y="-211"/>
      <point x="861" y="-127" type="curve" smooth="yes"/>
      <point x="861" y="-20" type="line"/>
      <point x="836" y="-20" type="line"/>
      <point x="836" y="-127" type="line" smooth="yes"/>
      <point x="836" y="-182"/>
      <point x="816" y="-203"/>
      <point x="774" y="-203" type="curve" smooth="yes"/>
      <point x="646" y="-203"/>
      <point x="738" y="255"/>
    </contour>
    <component base="O"/>
  </outline>
</glyph>
<glyph name="R" format="1">
  <advance width="930"/>
  <unicode hex="0052"/>
  <outline>
    <contour>
      <point x="322" y="750" type="line"/>
      <point x="322" y="0" type="line"/>
      <point x="194" y="0" type="line"/>
      <point x="194" y="750" type="line"/>
    </contour>
    <contour>
      <point x="266" y="750" type="line"/>
      <point x="266" y="725" type="line"/>
      <point x="90" y="725" type="line"/>
      <point x="90" y="750" type="line"/>
    </contour>
    <contour>
      <point x="90" y="25" type="line"/>
      <point x="266" y="25" type="line"/>
      <point x="266" y="0" type="line"/>
      <point x="90" y="0" type="line"/>
    </contour>
    <contour>
      <point x="311" y="361" type="line"/>
      <point x="311" y="361"/>
      <point x="311" y="372"/>
      <point x="311" y="388" type="curve"/>
      <point x="472" y="388" type="line" smooth="yes"/>
      <point x="585" y="388"/>
      <point x="660" y="410"/>
      <point x="660" y="558" type="curve" smooth="yes"/>
      <point x="660" y="705"/>
      <point x="585" y="723"/>
      <point x="472" y="723" type="curve"/>
      <point x="312" y="723" type="line"/>
      <point x="312" y="750" type="line"/>
      <point x="533" y="750" type="line" smooth="yes"/>
      <point x="675" y="750"/>
      <point x="800" y="689"/>
      <point x="800" y="557" type="curve"/>
      <point x="800" y="423"/>
      <point x="660" y="361"/>
      <point x="524" y="361" type="curve"/>
    </contour>
    <contour>
      <point x="308" y="25" type="line"/>
      <point x="491" y="25" type="line"/>
      <point x="491" y="0" type="line"/>
      <point x="308" y="0" type="line"/>
    </contour>
    <contour>
      <point x="428" y="376" type="line"/>
      <point x="743.0" y="376.0"/>
      <point x="641.0" y="27.0"/>
      <point x="769" y="27" type="curve" smooth="yes"/>
      <point x="811" y="27"/>
      <point x="831" y="48"/>
      <point x="831" y="103" type="curve" smooth="yes"/>
      <point x="831" y="210" type="line"/>
      <point x="856" y="210" type="line"/>
      <point x="856" y="103" type="line" smooth="yes"/>
      <point x="856" y="19"/>
      <point x="809" y="-20"/>
      <point x="725" y="-20" type="curve" smooth="yes"/>
      <point x="451.0" y="-20.0"/>
      <point x="628.0" y="361.0"/>
      <point x="415" y="361" type="curve"/>
    </contour>
  </outline>
</glyph>
<glyph name="S" format="1">
  <advance width="930"/>
  <unicode hex="0053"/>
  <outline>
    <contour>
      <point x="709" y="750" type="line"/>
      <point x="684" y="750" type="line"/>
      <point x="684" y="457" type="line" smooth="yes"/>
      <point x="709" y="457" type="line"/>
    </contour>
    <contour>
      <point x="118" y="299" type="line" smooth="yes"/>
      <point x="118" y="108"/>
      <point x="286" y="-20"/>
      <point x="491" y="-20" type="curve" smooth="yes"/>
      <point x="672" y="-20"/>
      <point x="824" y="46"/>
      <point x="824" y="180" type="curve" smooth="yes"/>
      <point x="824" y="285"/>
      <point x="768" y="358"/>
      <point x="518" y="429" type="curve" smooth="yes"/>
      <point x="321" y="483"/>
      <point x="284" y="512"/>
      <point x="284" y="610" type="curve" smooth="yes"/>
      <point x="284" y="707"/>
      <point x="339" y="743"/>
      <point x="450" y="743" type="curve" smooth="yes"/>
      <point x="570" y="743"/>
      <point x="684" y="648"/>
      <point x="684" y="469" type="curve" smooth="yes"/>
      <point x="684" y="457" type="line"/>
      <point x="709" y="457" type="line"/>
      <point x="709" y="676"/>
      <point x="579" y="770"/>
      <point x="435" y="770" type="curve" smooth="yes"/>
      <point x="306" y="770"/>
      <point x="163" y="701"/>
      <point x="163" y="569" type="curve" smooth="yes"/>
      <point x="163" y="443"/>
      <point x="241" y="375"/>
      <point x="450" y="315" type="curve" smooth="yes"/>
      <point x="654" y="256"/>
      <point x="694" y="228"/>
      <point x="694" y="132" type="curve"/>
      <point x="694" y="54"/>
      <point x="640" y="7"/>
      <point x="488" y="7" type="curve" smooth="yes"/>
      <point x="305" y="7"/>
      <point x="143" y="121"/>
      <point x="143" y="301" type="curve" smooth="yes"/>
      <point x="143" y="333" type="line"/>
      <point x="118" y="333" type="line"/>
    </contour>
    <contour>
      <point x="118" y="333" type="line"/>
      <point x="118" y="0" type="line"/>
      <point x="143" y="0" type="line"/>
      <point x="143" y="333" type="line"/>
    </contour>
    <contour>
      <point x="444" y="750" type="move" name="top"/>
    </contour>
  </outline>
</glyph>
<glyph name="T" format="1">
  <advance width="930"/>
  <unicode hex="0054"/>
  <outline>
    <contour>
      <point x="529" y="0" type="line"/>
      <point x="401" y="0" type="line"/>
      <point x="401" y="750" type="line"/>
      <point x="529" y="750" type="line"/>
    </contour>
    <contour>
      <point x="249" y="0" type="line"/>
      <point x="249" y="25" type="line"/>
      <point x="681" y="25" type="line"/>
      <point x="681" y="0" type="line"/>
    </contour>
    <contour>
      <point x="840" y="431" type="line"/>
      <point x="815" y="431" type="line"/>
      <point x="815" y="556" type="line" smooth="yes"/>
      <point x="815" y="690"/>
      <point x="782" y="723"/>
      <point x="638" y="723" type="curve" smooth="yes"/>
      <point x="338" y="723" type="line"/>
      <point x="338" y="750" type="line"/>
      <point x="840" y="750" type="line"/>
    </contour>
    <contour>
      <point x="90" y="431" type="line"/>
      <point x="90" y="750" type="line"/>
      <point x="592" y="750" type="line"/>
      <point x="592" y="723" type="line"/>
      <point x="292" y="723" type="line" smooth="yes"/>
      <point x="148" y="723"/>
      <point x="115" y="690"/>
      <point x="115" y="556" type="curve" smooth="yes"/>
      <point x="115" y="431" type="line"/>
    </contour>
  </outline>
</glyph>
<glyph name="U" format="1">
  <advance width="930"/>
  <unicode hex="0055"/>
  <outline>
    <contour>
      <point x="767" y="311" type="line" smooth="yes"/>
      <point x="767" y="105"/>
      <point x="667" y="-20"/>
      <point x="473" y="-20" type="curve" smooth="yes"/>
      <point x="287" y="-20"/>
      <point x="164" y="75"/>
      <point x="164" y="280" type="curve" smooth="yes"/>
      <point x="164" y="372" type="line"/>
      <point x="290" y="372" type="line"/>
      <point x="290" y="279" type="line" smooth="yes"/>
      <point x="290" y="87"/>
      <point x="349" y="14"/>
      <point x="489" y="16" type="curve" smooth="yes"/>
      <point x="639" y="18"/>
      <point x="736" y="110"/>
      <point x="736" y="311" type="curve"/>
      <point x="736" y="750" type="line"/>
      <point x="767" y="750" type="line"/>
    </contour>
    <contour>
      <point x="290" y="750" type="line"/>
      <point x="290" y="302" type="line"/>
      <point x="164" y="302" type="line"/>
      <point x="164" y="750" type="line"/>
    </contour>
    <contour>
      <point x="186" y="750" type="line"/>
      <point x="186" y="725" type="line"/>
      <point x="70" y="725" type="line"/>
      <point x="70" y="750" type="line"/>
    </contour>
    <contour>
      <point x="408" y="725" type="line"/>
      <point x="267" y="725" type="line"/>
      <point x="267" y="750" type="line"/>
      <point x="408" y="750" type="line"/>
    </contour>
    <contour>
      <point x="736" y="750" type="line"/>
      <point x="736" y="725" type="line"/>
      <point x="640" y="725" type="line"/>
      <point x="640" y="750" type="line"/>
    </contour>
    <contour>
      <point x="860" y="725" type="line"/>
      <point x="767" y="725" type="line"/>
      <point x="767" y="750" type="line"/>
      <point x="860" y="750" type="line"/>
    </contour>
    <contour>
      <point x="520" y="750" type="move" name="top"/>
    </contour>
  </outline>
</glyph>
<glyph name="V" format="1">
  <advance width="930"/>
  <unicode hex="0056"/>
  <outline>
    <contour>
      <point x="125" y="750" type="line"/>
      <point x="252" y="750" type="line"/>
      <point x="525" y="0" type="line"/>
      <point x="398" y="0" type="line"/>
    </contour>
    <contour>
      <point x="60" y="725" type="line"/>
      <point x="60" y="750" type="line"/>
      <point x="402" y="750" type="line"/>
      <point x="402" y="725" type="line"/>
    </contour>
    <contour>
      <point x="624" y="750" type="line"/>
      <point x="870" y="750" type="line"/>
      <point x="870" y="725" type="line"/>
      <point x="624" y="725" type="line"/>
    </contour>
    <contour>
      <point x="538" y="0" type="line"/>
      <point x="507" y="0" type="line" smooth="yes"/>
      <point x="769" y="725" type="line"/>
      <point x="800" y="725" type="line"/>
    </contour>
  </outline>
</glyph>
<glyph name="W" format="1">
  <advance width="930"/>
  <unicode hex="0057"/>
  <outline>
    <contour>
      <point x="50" y="725" type="line"/>
      <point x="880" y="725" type="line"/>
      <point x="880" y="750" type="line"/>
      <point x="50" y="750" type="line"/>
    </contour>
    <contour>
      <point x="376" y="0" type="line"/>
      <point x="531" y="725" type="line"/>
      <point x="500" y="725" type="line"/>
      <point x="345" y="0" type="line"/>
    </contour>
    <contour>
      <point x="348" y="0" type="line"/>
      <point x="258" y="750" type="line"/>
      <point x="131" y="750" type="line"/>
      <point x="221" y="0" type="line"/>
    </contour>
    <contour>
      <point x="708" y="0" type="line"/>
      <point x="800" y="730" type="line"/>
      <point x="769" y="730" type="line"/>
      <point x="677" y="0" type="line"/>
    </contour>
    <contour>
      <point x="680" y="0" type="line"/>
      <point x="527" y="745" type="line"/>
      <point x="467" y="457" type="line"/>
      <point x="552" y="0" type="line"/>
    </contour>
  </outline>
</glyph>
<glyph name="X" format="1">
  <advance width="930"/>
  <unicode hex="0058"/>
  <outline>
    <contour>
      <point x="420" y="0" type="line"/>
      <point x="420" y="25" type="line"/>
      <point x="70" y="25" type="line"/>
      <point x="70" y="0" type="line"/>
    </contour>
    <contour>
      <point x="139" y="750" type="line"/>
      <point x="647" y="0" type="line"/>
      <point x="799" y="0" type="line"/>
      <point x="293" y="750" type="line"/>
    </contour>
    <contour>
      <point x="424" y="725" type="line"/>
      <point x="424" y="750" type="line"/>
      <point x="70" y="750" type="line"/>
      <point x="70" y="725" type="line"/>
    </contour>
    <contour>
      <point x="860" y="25" type="line"/>
      <point x="538" y="25" type="line"/>
      <point x="538" y="0" type="line"/>
      <point x="860" y="0" type="line"/>
    </contour>
    <contour>
      <point x="860" y="725" type="line"/>
      <point x="860" y="750" type="line"/>
      <point x="542" y="750" type="line"/>
      <point x="542" y="725" type="line"/>
    </contour>
    <contour>
      <point x="460" y="349" type="line"/>
      <point x="494" y="349" type="line"/>
      <point x="769" y="730" type="line"/>
      <point x="736" y="730" type="line"/>
    </contour>
    <contour>
      <point x="152" y="15" type="line"/>
      <point x="186" y="15" type="line"/>
      <point x="461" y="396" type="line"/>
      <point x="428" y="396" type="line"/>
    </contour>
  </outline>
</glyph>
<glyph name="Y" format="1">
  <advance width="930"/>
  <unicode hex="0059"/>
  <outline>
    <contour>
      <point x="710" y="0" type="line"/>
      <point x="710" y="25" type="line"/>
      <point x="220" y="25" type="line"/>
      <point x="220" y="0" type="line"/>
    </contour>
    <contour>
      <point x="146" y="750" type="line"/>
      <point x="408" y="194" type="line"/>
      <point x="524" y="217" type="line"/>
      <point x="291" y="750" type="line"/>
    </contour>
    <contour>
      <point x="616" y="725" type="line"/>
      <point x="616" y="750" type="line"/>
      <point x="60" y="750" type="line"/>
      <point x="60" y="725" type="line"/>
    </contour>
    <contour>
      <point x="870" y="725" type="line"/>
      <point x="870" y="750" type="line"/>
      <point x="522" y="750" type="line"/>
      <point x="522" y="725" type="line"/>
    </contour>
    <contour>
      <point x="488" y="126" type="line"/>
      <point x="777" y="730" type="line"/>
      <point x="746" y="730" type="line"/>
      <point x="459" y="126" type="line"/>
    </contour>
    <contour>
      <point x="529" y="22" type="line"/>
      <point x="529" y="233" type="line" smooth="yes"/>
      <point x="401" y="233" type="line"/>
      <point x="401" y="22" type="line" smooth="yes"/>
    </contour>
    <contour>
      <point x="493.0" y="750.0" type="move" name="top"/>
    </contour>
  </outline>
</glyph>
<glyph name="Z" format="1">
  <advance width="930"/>
  <unicode hex="005A"/>
  <outline>
    <contour>
      <point x="817" y="723" type="line"/>
      <point x="653" y="723" type="line"/>
      <point x="117" y="27" type="line"/>
      <point x="277" y="27" type="line"/>
    </contour>
    <contour>
      <point x="811" y="449" type="line"/>
      <point x="811" y="0" type="line"/>
      <point x="117" y="0" type="line"/>
      <point x="117" y="27" type="line"/>
      <point x="609" y="27" type="line" smooth="yes"/>
      <point x="753" y="27"/>
      <point x="786" y="60"/>
      <point x="786" y="194" type="curve" smooth="yes"/>
      <point x="786" y="449" type="line"/>
    </contour>
    <contour>
      <point x="135" y="341" type="line"/>
      <point x="135" y="750" type="line"/>
      <point x="817" y="750" type="line"/>
      <point x="817" y="723" type="line"/>
      <point x="337" y="723" type="line" smooth="yes"/>
      <point x="193" y="723"/>
      <point x="160" y="690"/>
      <point x="160" y="556" type="curve" smooth="yes"/>
      <point x="160" y="341" type="line"/>
    </contour>
    <contour>
      <point x="481" y="750" type="move" name="top"/>
    </contour>
  </outline>
</glyph>
<glyph name="grave" format="1">
  <advance width="600"/>
  <unicode hex="0060"/>
  <outline>
    <contour>
      <point x="64" y="917" type="curve"/>
      <point x="64" y="854" type="line"/>
      <point x="186" y="801"/>
      <point x="298" y="800"/>
      <point x="529" y="800" type="curve"/>
      <point x="529" y="815" type="line"/>
      <point x="297.9852687716034" y="828.0008290301695"/>
      <point x="192.2283038420643" y="855.4100272884573"/>
    </contour>
    <contour>
      <point x="285.0" y="750.0" type="move" name="_top"/>
    </contour>
  </outline>
</glyph>
<glyph name="a" format="1">
  <advance width="930"/>
  <unicode hex="0061"/>
  <outline>
    <contour>
      <point x="741" y="119" type="curve" smooth="yes"/>
      <point x="741" y="527" type="line" smooth="yes"/>
      <point x="741" y="674"/>
      <point x="652" y="770"/>
      <point x="450" y="770" type="curve" smooth="yes"/>
      <point x="268" y="770"/>
      <point x="133" y="635"/>
      <point x="133" y="419" type="curve"/>
      <point x="158" y="419" type="line"/>
      <point x="158" y="632"/>
      <point x="297" y="743"/>
      <point x="448" y="743" type="curve" smooth="yes"/>
      <point x="580" y="743"/>
      <point x="613" y="688"/>
      <point x="613" y="547" type="curve" smooth="yes"/>
      <point x="613" y="121" type="line" smooth="yes"/>
      <point x="613" y="29"/>
      <point x="654" y="-20"/>
      <point x="746" y="-20" type="curve" smooth="yes"/>
      <point x="834" y="-20"/>
      <point x="855" y="12"/>
      <point x="855" y="119" type="curve" smooth="yes"/>
      <point x="855" y="195" type="line"/>
      <point x="830" y="195" type="line"/>
      <point x="830" y="121" type="line" smooth="yes"/>
      <point x="830" y="45"/>
      <point x="821" y="18"/>
      <point x="781" y="18" type="curve" smooth="yes"/>
      <point x="755" y="18"/>
      <point x="741" y="53"/>
    </contour>
    <contour>
      <point x="613" y="545" type="line"/>
      <point x="613" y="481"/>
      <point x="516" y="451"/>
      <point x="412" y="407" type="curve" smooth="yes"/>
      <point x="271" y="348"/>
      <point x="108" y="285"/>
      <point x="108" y="156" type="curve" smooth="yes"/>
      <point x="108" y="58"/>
      <point x="174" y="-20"/>
      <point x="336" y="-20" type="curve" smooth="yes"/>
      <point x="486" y="-20"/>
      <point x="631" y="127"/>
      <point x="631" y="249" type="curve"/>
      <point x="613" y="356" type="line"/>
      <point x="613" y="266" type="line" smooth="yes"/>
      <point x="613" y="160"/>
      <point x="491" y="19"/>
      <point x="366" y="19" type="curve" smooth="yes"/>
      <point x="265" y="19"/>
      <point x="248" y="92"/>
      <point x="248" y="202" type="curve" smooth="yes"/>
      <point x="248" y="301"/>
      <point x="300" y="331"/>
      <point x="422" y="382" type="curve" smooth="yes"/>
      <point x="545" y="435"/>
      <point x="612" y="459"/>
      <point x="631" y="516" type="curve"/>
      <point x="631" y="545" type="line"/>
    </contour>
    <contour>
      <point x="158" y="750" type="line"/>
      <point x="133" y="750" type="line"/>
      <point x="133" y="397" type="line" smooth="yes"/>
      <point x="158" y="397" type="line"/>
    </contour>
    <contour>
      <point x="449" y="750" type="move" name="top"/>
    </contour>
  </outline>
</glyph>
<glyph name="b" format="1">
  <advance width="930"/>
  <unicode hex="0062"/>
  <outline>
    <contour>
      <point x="787" y="750" type="line"/>
      <point x="281" y="750" type="line"/>
      <point x="281" y="725" type="line"/>
      <point x="787" y="725" type="line"/>
    </contour>
    <contour>
      <point x="489" y="7" type="curve"/>
      <point x="329" y="7"/>
      <point x="294" y="108"/>
      <point x="294" y="242" type="curve" smooth="yes"/>
      <point x="294" y="457" type="line" smooth="yes"/>
      <point x="294" y="605"/>
      <point x="381" y="644"/>
      <point x="490" y="644" type="curve" smooth="yes"/>
      <point x="641" y="644"/>
      <point x="675" y="587"/>
      <point x="675" y="329" type="curve" smooth="yes"/>
      <point x="675" y="78"/>
      <point x="634" y="7"/>
    </contour>
    <contour>
      <point x="289" y="94" type="line"/>
      <point x="324" y="20"/>
      <point x="390" y="-20"/>
      <point x="488" y="-20" type="curve" smooth="yes"/>
      <point x="707" y="-20"/>
      <point x="815" y="104"/>
      <point x="815" y="326" type="curve" smooth="yes"/>
      <point x="815" y="548"/>
      <point x="707" y="671"/>
      <point x="488" y="671" type="curve" smooth="yes"/>
      <point x="354" y="671"/>
      <point x="304" y="603"/>
      <point x="294" y="572" type="curve"/>
      <point x="294" y="750" type="line"/>
      <point x="75" y="750" type="line"/>
      <point x="75" y="725" type="line"/>
      <point x="166" y="725" type="line"/>
      <point x="166" y="-20" type="line"/>
      <point x="190" y="-20" type="line"/>
      <point x="304" y="103" type="line"/>
    </contour>
  </outline>
</glyph>
<glyph name="c" format="1">
  <advance width="930"/>
  <unicode hex="0063"/>
  <outline>
    <contour>
      <point x="820" y="421" type="line"/>
      <point x="820" y="750" type="line"/>
      <point x="795" y="750" type="line"/>
      <point x="795" y="421" type="line"/>
    </contour>
    <contour>
      <point x="815" y="311" type="line"/>
      <point x="815" y="105"/>
      <point x="694" y="9"/>
      <point x="496" y="9" type="curve" smooth="yes"/>
      <point x="293" y="9"/>
      <point x="230" y="110"/>
      <point x="230" y="367" type="curve" smooth="yes"/>
      <point x="230" y="640"/>
      <point x="289" y="743"/>
      <point x="491" y="743" type="curve" smooth="yes"/>
      <point x="696" y="743"/>
      <point x="795" y="629"/>
      <point x="795" y="421" type="curve"/>
      <point x="820" y="421" type="line"/>
      <point x="820" y="643"/>
      <point x="706" y="770"/>
      <point x="490" y="770" type="curve" smooth="yes"/>
      <point x="214" y="770"/>
      <point x="90" y="627"/>
      <point x="90" y="368" type="curve" smooth="yes"/>
      <point x="90" y="116"/>
      <point x="219" y="-20"/>
      <point x="496" y="-20" type="curve" smooth="yes"/>
      <point x="714" y="-20"/>
      <point x="840" y="96"/>
      <point x="840" y="311" type="curve"/>
    </contour>
    <contour>
      <point x="495" y="0" type="move" name="bottom"/>
    </contour>
    <contour>
      <point x="491" y="750" type="move" name="top"/>
    </contour>
  </outline>
</glyph>
<glyph name="d" format="1">
  <advance width="930"/>
  <unicode hex="0064"/>
  <outline>
    <contour>
      <point x="143" y="725" type="line"/>
      <point x="637" y="725" type="line"/>
      <point x="637" y="750" type="line"/>
      <point x="143" y="750" type="line"/>
    </contour>
    <contour>
      <point x="441" y="7" type="curve"/>
      <point x="296" y="7"/>
      <point x="255" y="78"/>
      <point x="255" y="329" type="curve" smooth="yes"/>
      <point x="255" y="587"/>
      <point x="289" y="644"/>
      <point x="440" y="644" type="curve" smooth="yes"/>
      <point x="542" y="644"/>
      <point x="624" y="605"/>
      <point x="624" y="457" type="curve" smooth="yes"/>
      <point x="624" y="242" type="line" smooth="yes"/>
      <point x="624" y="108"/>
      <point x="591" y="7"/>
    </contour>
    <contour>
      <point x="626" y="93" type="line"/>
      <point x="626" y="-2"/>
      <point x="675" y="-20"/>
      <point x="758" y="-20" type="curve" smooth="yes"/>
      <point x="830" y="-20"/>
      <point x="847" y="12"/>
      <point x="847" y="118" type="curve" smooth="yes"/>
      <point x="847" y="194" type="line"/>
      <point x="822" y="194" type="line"/>
      <point x="822" y="120" type="line" smooth="yes"/>
      <point x="822" y="45"/>
      <point x="815" y="18"/>
      <point x="785" y="18" type="curve" smooth="yes"/>
      <point x="762" y="18"/>
      <point x="752" y="33"/>
      <point x="752" y="98" type="curve" smooth="yes"/>
      <point x="752" y="725" type="line"/>
      <point x="855" y="725" type="line"/>
      <point x="855" y="750" type="line"/>
      <point x="624" y="750" type="line"/>
      <point x="624" y="577" type="line"/>
      <point x="614" y="607"/>
      <point x="568" y="671"/>
      <point x="442" y="671" type="curve" smooth="yes"/>
      <point x="223" y="671"/>
      <point x="115" y="548"/>
      <point x="115" y="326" type="curve" smooth="yes"/>
      <point x="115" y="104"/>
      <point x="223" y="-20"/>
      <point x="442" y="-20" type="curve" smooth="yes"/>
      <point x="534" y="-20"/>
      <point x="595" y="20"/>
      <point x="629" y="94" type="curve"/>
    </contour>
  </outline>
</glyph>
<glyph name="e" format="1">
  <advance width="930"/>
  <unicode hex="0065"/>
  <outline>
    <contour>
      <point x="813" y="282" type="line"/>
      <point x="813" y="96"/>
      <point x="693" y="9"/>
      <point x="496" y="9" type="curve" smooth="yes"/>
      <point x="293" y="9"/>
      <point x="230" y="110"/>
      <point x="230" y="367" type="curve" smooth="yes"/>
      <point x="230" y="640"/>
      <point x="289" y="743"/>
      <point x="462" y="743" type="curve"/>
      <point x="643" y="743"/>
      <point x="702" y="635"/>
      <point x="700" y="351" type="curve"/>
      <point x="840" y="351" type="line"/>
      <point x="842" y="621"/>
      <point x="719" y="770"/>
      <point x="461" y="770" type="curve"/>
      <point x="214" y="770"/>
      <point x="90" y="627"/>
      <point x="90" y="368" type="curve" smooth="yes"/>
      <point x="90" y="116"/>
      <point x="219" y="-20"/>
      <point x="496" y="-20" type="curve" smooth="yes"/>
      <point x="714" y="-20"/>
      <point x="840" y="86"/>
      <point x="840" y="282" type="curve"/>
    </contour>
    <contour>
      <point x="726" y="378" type="curve"/>
      <point x="206" y="378" type="line"/>
      <point x="208" y="351" type="line"/>
      <point x="726" y="351" type="line"/>
      <point x="726" y="351"/>
      <point x="726" y="378"/>
    </contour>
    <contour>
      <point x="462" y="750" type="move" name="top"/>
    </contour>
  </outline>
</glyph>
<glyph name="f" format="1">
  <advance width="930"/>
  <unicode hex="0066"/>
  <outline>
    <contour>
      <point x="840" y="214" type="line"/>
      <point x="840" y="189" type="line"/>
      <point x="90" y="189" type="line"/>
      <point x="90" y="214" type="line"/>
    </contour>
    <contour>
      <point x="91" y="0" type="line"/>
      <point x="91" y="25" type="line"/>
      <point x="840" y="25" type="line"/>
      <point x="840" y="0" type="line"/>
    </contour>
    <contour>
      <point x="783" y="586" type="curve" smooth="yes"/>
      <point x="783.0" y="693.657142857143"/>
      <point x="704.0" y="743.0"/>
      <point x="603" y="743" type="curve" smooth="yes"/>
      <point x="476" y="743"/>
      <point x="418" y="661"/>
      <point x="418" y="413" type="curve" smooth="yes"/>
      <point x="418" y="0" type="line"/>
      <point x="290" y="0" type="line"/>
      <point x="290" y="413" type="line" smooth="yes"/>
      <point x="290" y="653"/>
      <point x="403" y="770"/>
      <point x="601" y="770" type="curve" smooth="yes"/>
      <point x="733.0" y="770.0"/>
      <point x="811.0" y="701.6831683168317"/>
      <point x="811" y="586" type="curve" smooth="yes"/>
      <point x="811.0" y="357.1"/>
      <point x="424.23931274350406" y="402.6570759919979"/>
      <point x="417" y="208" type="curve"/>
      <point x="401" y="226" type="line"/>
      <point x="411" y="266" type="line"/>
      <point x="466" y="417"/>
      <point x="783.0" y="396.33112582781456"/>
    </contour>
  </outline>
</glyph>
<glyph name="g" format="1">
  <advance width="930"/>
  <unicode hex="0067"/>
  <outline>
    <contour>
      <point x="451" y="743" type="curve" smooth="yes"/>
      <point x="619" y="743"/>
      <point x="656" y="643"/>
      <point x="656" y="508" type="curve" smooth="yes"/>
      <point x="656" y="463" type="line" smooth="yes"/>
      <point x="656" y="315"/>
      <point x="564" y="276"/>
      <point x="450" y="276" type="curve" smooth="yes"/>
      <point x="290.65714285714284" y="276.0"/>
      <point x="255.0" y="317.0"/>
      <point x="255" y="501" type="curve" smooth="yes"/>
      <point x="255.0" y="691.0"/>
      <point x="298.4318181818182" y="743.0"/>
    </contour>
    <contour>
      <point x="407" y="-20" type="curve" smooth="yes"/>
      <point x="664.0" y="-20.0"/>
      <point x="784" y="47.43089430894307"/>
      <point x="784" y="266" type="curve" smooth="yes"/>
      <point x="784" y="770" type="line"/>
      <point x="760" y="770" type="line"/>
      <point x="659" y="661" type="line"/>
      <point x="626" y="732"/>
      <point x="555" y="770"/>
      <point x="452" y="770" type="curve" smooth="yes"/>
      <point x="226" y="770"/>
      <point x="115.0" y="675.8233438485804"/>
      <point x="115" y="504" type="curve" smooth="yes"/>
      <point x="115.0" y="339.8048780487805"/>
      <point x="226.00000000000003" y="249.0"/>
      <point x="452" y="249" type="curve" smooth="yes"/>
      <point x="593" y="249"/>
      <point x="646" y="313"/>
      <point x="656" y="343" type="curve"/>
      <point x="656" y="251" type="line" smooth="yes"/>
      <point x="656" y="42.88235294117649"/>
      <point x="593.0" y="7.0"/>
      <point x="407" y="7" type="curve" smooth="yes"/>
      <point x="170.75590551181102" y="7.0"/>
      <point x="133.0" y="44.0"/>
      <point x="133" y="122" type="curve" smooth="yes"/>
      <point x="133.0" y="220.0"/>
      <point x="302.6354515050167" y="249.0"/>
      <point x="452" y="249" type="curve"/>
      <point x="435" y="272" type="line"/>
      <point x="233.3016654255152" y="264.5296913120561"/>
      <point x="106.0" y="235.0"/>
      <point x="106" y="122" type="curve" smooth="yes"/>
      <point x="106.0" y="36.0"/>
      <point x="145.6334519572954" y="-20.0"/>
    </contour>
  </outline>
</glyph>
<glyph name="h" format="1">
  <advance width="930"/>
  <unicode hex="0068"/>
  <outline>
    <contour>
      <point x="312" y="413" type="line" smooth="yes"/>
      <point x="312" y="661"/>
      <point x="347" y="743"/>
      <point x="506" y="743" type="curve" smooth="yes"/>
      <point x="639" y="743"/>
      <point x="743" y="703"/>
      <point x="743" y="598" type="curve" smooth="yes"/>
      <point x="743" y="473"/>
      <point x="568" y="447"/>
      <point x="439" y="395" type="curve" smooth="yes"/>
      <point x="373" y="368"/>
      <point x="330" y="346"/>
      <point x="312" y="313" type="curve"/>
    </contour>
    <contour>
      <point x="184" y="25" type="line"/>
      <point x="80" y="25" type="line"/>
      <point x="80" y="0" type="line"/>
      <point x="860" y="0" type="line"/>
      <point x="860" y="25" type="line"/>
      <point x="755" y="25" type="line"/>
      <point x="755" y="110" type="line" smooth="yes"/>
      <point x="755" y="297"/>
      <point x="650" y="378"/>
      <point x="484" y="378" type="curve" smooth="yes"/>
      <point x="475" y="378"/>
      <point x="466" y="377"/>
      <point x="455" y="376" type="curve"/>
      <point x="594" y="429"/>
      <point x="770" y="456"/>
      <point x="770" y="598" type="curve" smooth="yes"/>
      <point x="770" y="708"/>
      <point x="671" y="770"/>
      <point x="504" y="770" type="curve" smooth="yes"/>
      <point x="282" y="770"/>
      <point x="184" y="653"/>
      <point x="184" y="413" type="curve" smooth="yes"/>
    </contour>
    <contour>
      <point x="312" y="25" type="line"/>
      <point x="312" y="180" type="line"/>
      <point x="312" y="311"/>
      <point x="359" y="353"/>
      <point x="467" y="353" type="curve" smooth="yes"/>
      <point x="596" y="353"/>
      <point x="627" y="308"/>
      <point x="627" y="125" type="curve" smooth="yes"/>
      <point x="627" y="25" type="line"/>
    </contour>
  </outline>
</glyph>
<glyph name="i" format="1">
  <advance width="930"/>
  <unicode hex="0069"/>
  <outline>
    <contour>
      <point x="465" y="623" type="curve" smooth="yes"/>
      <point x="514" y="623"/>
      <point x="554" y="663"/>
      <point x="554" y="711" type="curve" smooth="yes"/>
      <point x="554" y="760"/>
      <point x="514" y="800"/>
      <point x="465" y="800" type="curve" smooth="yes"/>
      <point x="416" y="800"/>
      <point x="376" y="760"/>
      <point x="376" y="711" type="curve" smooth="yes"/>
      <point x="376" y="663"/>
      <point x="416" y="623"/>
    </contour>
    <component base="dotlessi"/>
    <component base="dotlessi"/>
  </outline>
</glyph>
<glyph name="j" format="1">
  <advance width="930"/>
  <unicode hex="006A"/>
  <outline>
    <contour>
      <point x="709" y="623" type="curve" smooth="yes"/>
      <point x="758" y="623"/>
      <point x="798" y="663"/>
      <point x="798" y="711" type="curve" smooth="yes"/>
      <point x="798" y="760"/>
      <point x="758" y="800"/>
      <point x="709" y="800" type="curve" smooth="yes"/>
      <point x="660" y="800"/>
      <point x="620" y="760"/>
      <point x="620" y="711" type="curve" smooth="yes"/>
      <point x="620" y="663"/>
      <point x="660" y="623"/>
    </contour>
    <component base="dotlessj"/>
  </outline>
</glyph>
<glyph name="k" format="1">
  <advance width="930"/>
  <unicode hex="006B"/>
  <outline>
    <contour>
      <point x="312" y="413" type="curve" smooth="yes"/>
      <point x="312" y="313" type="line"/>
      <point x="330" y="346"/>
      <point x="373" y="368"/>
      <point x="439" y="395" type="curve" smooth="yes"/>
      <point x="571.6584460678508" y="448.47472244595536"/>
      <point x="753.0" y="473.0"/>
      <point x="753" y="598" type="curve" smooth="yes"/>
      <point x="753.0" y="703.0"/>
      <point x="644.6118143459915" y="743.0"/>
      <point x="506" y="743" type="curve" smooth="yes"/>
      <point x="347" y="743"/>
      <point x="312" y="661"/>
    </contour>
    <contour>
      <point x="469.0" y="353.0" type="curve" smooth="yes"/>
      <point x="360.0" y="353.0"/>
      <point x="312.0" y="311.0"/>
      <point x="312.0" y="180.0" type="curve"/>
      <point x="312.0" y="25.0" type="line"/>
      <point x="637" y="25" type="line"/>
      <point x="637" y="90" type="line" smooth="yes"/>
      <point x="637" y="245.0"/>
      <point x="620.6071428571429" y="252.0"/>
      <point x="502" y="252" type="curve" smooth="yes"/>
      <point x="422" y="252"/>
      <point x="383" y="230"/>
      <point x="383" y="173" type="curve" smooth="yes"/>
      <point x="383" y="123"/>
      <point x="418" y="99"/>
      <point x="475" y="99" type="curve" smooth="yes"/>
      <point x="529" y="99"/>
      <point x="553" y="125"/>
      <point x="553" y="206" type="curve" smooth="yes"/>
      <point x="553.0" y="294.0"/>
      <point x="554.0632911392405" y="353.0"/>
    </contour>
    <contour>
      <point x="413" y="373" type="line"/>
      <point x="434" y="375"/>
      <point x="452" y="378"/>
      <point x="469" y="378" type="curve" smooth="yes"/>
      <point x="583.0934579439253" y="378.0"/>
      <point x="581.0" y="288.0"/>
      <point x="581" y="203" type="curve" smooth="yes"/>
      <point x="581" y="110"/>
      <point x="539" y="72"/>
      <point x="475" y="72" type="curve" smooth="yes"/>
      <point x="408" y="72"/>
      <point x="355" y="111"/>
      <point x="355" y="172" type="curve" smooth="yes"/>
      <point x="355" y="244"/>
      <point x="412" y="276"/>
      <point x="502" y="276" type="curve" smooth="yes"/>
      <point x="668.8283582089553" y="276.0"/>
      <point x="765" y="219.0"/>
      <point x="765" y="51" type="curve" smooth="yes"/>
      <point x="765" y="25" type="line"/>
      <point x="870" y="25" type="line"/>
      <point x="870" y="0" type="line"/>
      <point x="80" y="0" type="line"/>
      <point x="80" y="25" type="line"/>
      <point x="184" y="25" type="line"/>
      <point x="184" y="413" type="line" smooth="yes"/>
      <point x="184" y="653"/>
      <point x="282" y="770"/>
      <point x="504" y="770" type="curve" smooth="yes"/>
      <point x="677.2781954887218" y="770.0"/>
      <point x="780.0" y="708.0"/>
      <point x="780" y="598" type="curve" smooth="yes"/>
      <point x="780.0" y="452.0"/>
      <point x="586.8292537554785" y="427.46875486511505"/>
      <point x="437" y="370" type="curve"/>
    </contour>
  </outline>
</glyph>
<glyph name="l" format="1">
  <advance width="930"/>
  <unicode hex="006C"/>
  <outline>
    <contour>
      <point x="289" y="25" type="line"/>
      <point x="287" y="0" type="line"/>
      <point x="80" y="0" type="line"/>
      <point x="80" y="25" type="line"/>
    </contour>
    <contour>
      <point x="810" y="0" type="line"/>
      <point x="198" y="0" type="line"/>
      <point x="198" y="27" type="line"/>
      <point x="557" y="27" type="line" smooth="yes"/>
      <point x="738" y="27"/>
      <point x="785" y="106"/>
      <point x="785" y="274" type="curve" smooth="yes"/>
      <point x="785" y="300" type="line"/>
      <point x="810" y="300" type="line"/>
    </contour>
    <contour>
      <point x="184" y="18" type="line"/>
      <point x="184" y="413" type="line" smooth="yes"/>
      <point x="184" y="652.0"/>
      <point x="274.0001812450507" y="768.9655181342121"/>
      <point x="484" y="770" type="curve" smooth="yes"/>
      <point x="666.9999792626252" y="770.999999886681"/>
      <point x="780.0" y="674.3650190114068"/>
      <point x="780" y="508" type="curve" smooth="yes"/>
      <point x="780.0" y="224.0"/>
      <point x="320.0001927567898" y="280.00583089288983"/>
      <point x="312" y="38" type="curve"/>
      <point x="296" y="56" type="line"/>
      <point x="306" y="116" type="line"/>
      <point x="371.1935819264593" y="285.5033130087941"/>
      <point x="753.0" y="271.0"/>
      <point x="753" y="508" type="curve" smooth="yes"/>
      <point x="753.0" y="676.2838983050847"/>
      <point x="632.0" y="743.0"/>
      <point x="486" y="743" type="curve" smooth="yes"/>
      <point x="341.70731707317077" y="743.0"/>
      <point x="312" y="661.0"/>
      <point x="312" y="413" type="curve" smooth="yes"/>
      <point x="312" y="18" type="line"/>
    </contour>
  </outline>
</glyph>
<glyph name="m" format="1">
  <advance width="930"/>
  <unicode hex="006D"/>
  <outline>
    <contour>
      <point x="534" y="532" type="curve" smooth="yes"/>
      <point x="534" y="0" type="line"/>
      <point x="414" y="0" type="line"/>
      <point x="414" y="532" type="line" smooth="yes"/>
      <point x="414" y="684.0"/>
      <point x="398.9230769230769" y="734.0"/>
      <point x="358" y="734" type="curve" smooth="yes"/>
      <point x="311.57894736842104" y="734.0"/>
      <point x="274.0" y="650.0"/>
      <point x="274" y="452" type="curve"/>
      <point x="246" y="524" type="line"/>
      <point x="261.0014512301377" y="709.0178985050316"/>
      <point x="301.20000000000005" y="770.0"/>
      <point x="384" y="770" type="curve" smooth="yes"/>
      <point x="481.0588235294118" y="770.0"/>
      <point x="534" y="680.0"/>
    </contour>
    <contour>
      <point x="274" y="0" type="line"/>
      <point x="154" y="0" type="line"/>
      <point x="154" y="750" type="line"/>
      <point x="262" y="750" type="line"/>
      <point x="262" y="587" type="line"/>
      <point x="274" y="595" type="line"/>
    </contour>
    <contour>
      <point x="739" y="0" type="line"/>
      <point x="70" y="0" type="line"/>
      <point x="70" y="25" type="line"/>
      <point x="739" y="25" type="line"/>
    </contour>
    <contour>
      <point x="70" y="725" type="line"/>
      <point x="70" y="750" type="line"/>
      <point x="176" y="750" type="line"/>
      <point x="176" y="725" type="line"/>
    </contour>
    <contour>
      <point x="794" y="532" type="curve" smooth="yes"/>
      <point x="794" y="0" type="line"/>
      <point x="674" y="0" type="line"/>
      <point x="674" y="532" type="line" smooth="yes"/>
      <point x="674" y="685.0"/>
      <point x="656.0350877192982" y="734.0"/>
      <point x="610" y="734" type="curve" smooth="yes"/>
      <point x="567.3150684931506" y="734.0"/>
      <point x="534.0" y="649.0"/>
      <point x="534" y="452" type="curve"/>
      <point x="505" y="524" type="line"/>
      <point x="521.0009145557373" y="710.0106317104454"/>
      <point x="554.1338582677166" y="770.0"/>
      <point x="635" y="770" type="curve" smooth="yes"/>
      <point x="738" y="770"/>
      <point x="794" y="680"/>
    </contour>
    <contour>
      <point x="874" y="25" type="line"/>
      <point x="874" y="0" type="line"/>
      <point x="772" y="0" type="line"/>
      <point x="772" y="25" type="line"/>
    </contour>
  </outline>
</glyph>
<glyph name="n" format="1">
  <advance width="930"/>
  <unicode hex="006E"/>
  <outline>
    <contour>
      <point x="751" y="467" type="curve" smooth="yes"/>
      <point x="751" y="0" type="line"/>
      <point x="623" y="0" type="line"/>
      <point x="623" y="426" type="line" smooth="yes"/>
      <point x="623" y="677"/>
      <point x="595" y="737"/>
      <point x="490" y="737" type="curve" smooth="yes"/>
      <point x="364" y="737"/>
      <point x="322" y="645"/>
      <point x="322" y="431" type="curve"/>
      <point x="298" y="503" type="line"/>
      <point x="310" y="707"/>
      <point x="386" y="770"/>
      <point x="506" y="770" type="curve" smooth="yes"/>
      <point x="674" y="770"/>
      <point x="751" y="702"/>
    </contour>
    <contour>
      <point x="322" y="0" type="line"/>
      <point x="194" y="0" type="line"/>
      <point x="194" y="750" type="line"/>
      <point x="312" y="750" type="line"/>
      <point x="312" y="585" type="line"/>
      <point x="322" y="565" type="line"/>
    </contour>
    <contour>
      <point x="246" y="0" type="line"/>
      <point x="90" y="0" type="line"/>
      <point x="90" y="25" type="line"/>
      <point x="246" y="25" type="line"/>
    </contour>
    <contour>
      <point x="90" y="725" type="line"/>
      <point x="90" y="750" type="line"/>
      <point x="246" y="750" type="line"/>
      <point x="246" y="725" type="line"/>
    </contour>
    <contour>
      <point x="485" y="25" type="line"/>
      <point x="485" y="0" type="line"/>
      <point x="299" y="0" type="line"/>
      <point x="299" y="25" type="line"/>
    </contour>
    <contour>
      <point x="683" y="0" type="line"/>
      <point x="385" y="0" type="line"/>
      <point x="385" y="25" type="line"/>
      <point x="683" y="25" type="line"/>
    </contour>
    <contour>
      <point x="855" y="25" type="line"/>
      <point x="855" y="0" type="line"/>
      <point x="720" y="0" type="line"/>
      <point x="720" y="25" type="line"/>
    </contour>
    <contour>
      <point x="492" y="750" type="move" name="top"/>
    </contour>
  </outline>
</glyph>
<glyph name="o" format="1">
  <advance width="930"/>
  <unicode hex="006F"/>
  <outline>
    <component base="O"/>
    <contour>
      <point x="477" y="750" type="move" name="top"/>
    </contour>
  </outline>
</glyph>
<glyph name="p" format="1">
  <advance width="930"/>
  <unicode hex="0070"/>
  <outline>
    <contour>
      <point x="499" y="743" type="curve"/>
      <point x="635.5128205128206" y="743.0"/>
      <point x="675.0" y="672.0"/>
      <point x="675" y="421" type="curve" smooth="yes"/>
      <point x="675.0" y="163.0"/>
      <point x="643.3870967741935" y="106.0"/>
      <point x="500" y="106" type="curve" smooth="yes"/>
      <point x="401" y="106"/>
      <point x="322" y="145"/>
      <point x="322" y="293" type="curve" smooth="yes"/>
      <point x="322" y="508" type="line" smooth="yes"/>
      <point x="322" y="642"/>
      <point x="354" y="743"/>
    </contour>
    <contour>
      <point x="301" y="569" type="curve"/>
      <point x="312" y="564" type="line"/>
      <point x="312" y="750" type="line"/>
      <point x="194" y="750" type="line"/>
      <point x="194" y="25" type="line"/>
      <point x="95" y="25" type="line"/>
      <point x="95" y="0" type="line"/>
      <point x="322" y="0" type="line"/>
      <point x="322" y="173" type="line"/>
      <point x="332" y="143"/>
      <point x="376" y="79"/>
      <point x="498" y="79" type="curve" smooth="yes"/>
      <point x="710" y="79"/>
      <point x="815" y="202"/>
      <point x="815" y="424" type="curve" smooth="yes"/>
      <point x="815" y="646"/>
      <point x="710" y="770"/>
      <point x="498" y="770" type="curve" smooth="yes"/>
      <point x="392" y="770"/>
      <point x="313" y="710"/>
    </contour>
    <contour>
      <point x="273" y="0" type="line"/>
      <point x="579" y="0" type="line"/>
      <point x="579" y="25" type="line"/>
      <point x="273" y="25" type="line"/>
    </contour>
    <contour>
      <point x="90" y="725" type="line"/>
      <point x="246" y="725" type="line"/>
      <point x="246" y="750" type="line"/>
      <point x="90" y="750" type="line"/>
    </contour>
  </outline>
</glyph>
<glyph name="q" format="1">
  <advance width="930"/>
  <unicode hex="0071"/>
  <outline>
    <contour>
      <point x="441" y="744" type="curve"/>
      <point x="601" y="744"/>
      <point x="636" y="643"/>
      <point x="636" y="508" type="curve" smooth="yes"/>
      <point x="636" y="293" type="line" smooth="yes"/>
      <point x="636" y="145"/>
      <point x="549" y="106"/>
      <point x="440" y="106" type="curve" smooth="yes"/>
      <point x="288.6363636363636" y="106.0"/>
      <point x="255.0" y="163.0"/>
      <point x="255" y="421" type="curve" smooth="yes"/>
      <point x="255.0" y="673.0"/>
      <point x="296.4578313253012" y="744.0"/>
    </contour>
    <contour>
      <point x="641" y="656" type="line"/>
      <point x="606" y="731"/>
      <point x="540" y="771"/>
      <point x="442" y="771" type="curve" smooth="yes"/>
      <point x="223" y="771"/>
      <point x="115" y="647"/>
      <point x="115" y="424" type="curve" smooth="yes"/>
      <point x="115" y="202"/>
      <point x="223" y="79"/>
      <point x="442" y="79" type="curve" smooth="yes"/>
      <point x="576" y="79"/>
      <point x="626" y="143"/>
      <point x="636" y="173" type="curve"/>
      <point x="636" y="0" type="line"/>
      <point x="855" y="0" type="line"/>
      <point x="855" y="25" type="line"/>
      <point x="764" y="25" type="line"/>
      <point x="764" y="770" type="line"/>
      <point x="740" y="770" type="line"/>
      <point x="626" y="647" type="line"/>
    </contour>
    <contour>
      <point x="143" y="0" type="line"/>
      <point x="649" y="0" type="line"/>
      <point x="649" y="25" type="line"/>
      <point x="143" y="25" type="line"/>
    </contour>
  </outline>
</glyph>
<glyph name="r" format="1">
  <advance width="930"/>
  <unicode hex="0072"/>
  <outline>
    <contour>
      <point x="830" y="367" type="curve"/>
      <point x="805" y="366" type="line"/>
      <point x="805" y="669"/>
      <point x="753" y="741"/>
      <point x="640" y="741" type="curve" smooth="yes"/>
      <point x="506" y="741"/>
      <point x="466" y="648"/>
      <point x="466" y="431" type="curve"/>
      <point x="440" y="502" type="line"/>
      <point x="452" y="706"/>
      <point x="527" y="770"/>
      <point x="640" y="770" type="curve" smooth="yes"/>
      <point x="771" y="770"/>
      <point x="830" y="680"/>
    </contour>
    <contour>
      <point x="466" y="0" type="line"/>
      <point x="338" y="0" type="line"/>
      <point x="338" y="750" type="line"/>
      <point x="456" y="750" type="line"/>
      <point x="456" y="585" type="line"/>
      <point x="466" y="565" type="line"/>
    </contour>
    <contour>
      <point x="390" y="0" type="line"/>
      <point x="90" y="0" type="line"/>
      <point x="90" y="25" type="line"/>
      <point x="390" y="25" type="line"/>
    </contour>
    <contour>
      <point x="90" y="725" type="line"/>
      <point x="90" y="750" type="line"/>
      <point x="390" y="750" type="line"/>
      <point x="390" y="725" type="line"/>
    </contour>
    <contour>
      <point x="749" y="25" type="line"/>
      <point x="749" y="0" type="line"/>
      <point x="443" y="0" type="line"/>
      <point x="443" y="25" type="line"/>
    </contour>
    <contour>
      <point x="830" y="750" type="line"/>
      <point x="830" y="337" type="line"/>
      <point x="805" y="337" type="line" smooth="yes"/>
      <point x="805" y="750" type="line"/>
    </contour>
  </outline>
</glyph>
<glyph name="s" format="1">
  <advance width="930"/>
  <unicode hex="0073"/>
  <outline>
    <contour>
      <point x="714" y="750" type="line"/>
      <point x="689" y="750" type="line"/>
      <point x="689" y="457" type="line" smooth="yes"/>
      <point x="714" y="457" type="line"/>
    </contour>
    <contour>
      <point x="693" y="132" type="curve" smooth="yes"/>
      <point x="693" y="54"/>
      <point x="634" y="7"/>
      <point x="468" y="7" type="curve" smooth="yes"/>
      <point x="249" y="7"/>
      <point x="145" y="76"/>
      <point x="145" y="271" type="curve" smooth="yes"/>
      <point x="145" y="303" type="line"/>
      <point x="118" y="303" type="line"/>
      <point x="118" y="269" type="line" smooth="yes"/>
      <point x="118" y="63"/>
      <point x="231" y="-20"/>
      <point x="471" y="-20" type="curve" smooth="yes"/>
      <point x="663" y="-20"/>
      <point x="824" y="47"/>
      <point x="824" y="183" type="curve" smooth="yes"/>
      <point x="824" y="287"/>
      <point x="768" y="358"/>
      <point x="518" y="429" type="curve" smooth="yes"/>
      <point x="325" y="482"/>
      <point x="289" y="512"/>
      <point x="289" y="610" type="curve" smooth="yes"/>
      <point x="289" y="707"/>
      <point x="344" y="743"/>
      <point x="455" y="743" type="curve" smooth="yes"/>
      <point x="575" y="743"/>
      <point x="689" y="648"/>
      <point x="689" y="469" type="curve" smooth="yes"/>
      <point x="689" y="457" type="line"/>
      <point x="714" y="457" type="line"/>
      <point x="714" y="676"/>
      <point x="584" y="770"/>
      <point x="440" y="770" type="curve" smooth="yes"/>
      <point x="311" y="770"/>
      <point x="168" y="701"/>
      <point x="168" y="569" type="curve" smooth="yes"/>
      <point x="168" y="443"/>
      <point x="244" y="374"/>
      <point x="450" y="315" type="curve" smooth="yes"/>
      <point x="653" y="256"/>
      <point x="693" y="228"/>
    </contour>
    <contour>
      <point x="442" y="750" type="move" name="top"/>
    </contour>
  </outline>
</glyph>
<glyph name="t" format="1">
  <advance width="930"/>
  <unicode hex="0074"/>
  <outline>
    <contour>
      <point x="303" y="296" type="curve"/>
      <point x="303" y="590" type="line"/>
      <point x="65" y="590" type="line"/>
      <point x="65" y="617" type="line"/>
      <point x="174" y="617" type="line"/>
      <point x="405" y="770" type="line"/>
      <point x="430" y="770" type="line"/>
      <point x="430" y="296" type="line" smooth="yes"/>
      <point x="430" y="84"/>
      <point x="473" y="7"/>
      <point x="614" y="7" type="curve" smooth="yes"/>
      <point x="706" y="7"/>
      <point x="814" y="78"/>
      <point x="814" y="259" type="curve"/>
      <point x="840" y="259" type="line"/>
      <point x="840" y="54"/>
      <point x="721" y="-20"/>
      <point x="588" y="-20" type="curve" smooth="yes"/>
      <point x="394" y="-20"/>
      <point x="303" y="88"/>
    </contour>
    <contour>
      <point x="380" y="617" type="line"/>
      <point x="840" y="617" type="line"/>
      <point x="840" y="590" type="line"/>
      <point x="380" y="590" type="line"/>
    </contour>
  </outline>
</glyph>
<glyph name="u" format="1">
  <advance width="930"/>
  <unicode hex="0075"/>
  <outline>
    <contour>
      <point x="179" y="283" type="curve" smooth="yes"/>
      <point x="179" y="750" type="line"/>
      <point x="307" y="750" type="line"/>
      <point x="307" y="324" type="line" smooth="yes"/>
      <point x="307" y="73"/>
      <point x="335" y="13"/>
      <point x="440" y="13" type="curve" smooth="yes"/>
      <point x="566" y="13"/>
      <point x="608" y="105"/>
      <point x="608" y="319" type="curve"/>
      <point x="632" y="247" type="line"/>
      <point x="620" y="43"/>
      <point x="544" y="-20"/>
      <point x="424" y="-20" type="curve" smooth="yes"/>
      <point x="256" y="-20"/>
      <point x="179" y="48"/>
    </contour>
    <contour>
      <point x="445" y="725" type="line"/>
      <point x="445" y="750" type="line"/>
      <point x="631" y="750" type="line"/>
      <point x="631" y="725" type="line"/>
    </contour>
    <contour>
      <point x="247" y="750" type="line"/>
      <point x="545" y="750" type="line"/>
      <point x="545" y="725" type="line"/>
      <point x="247" y="725" type="line"/>
    </contour>
    <contour>
      <point x="75" y="725" type="line"/>
      <point x="75" y="750" type="line"/>
      <point x="210" y="750" type="line"/>
      <point x="210" y="725" type="line"/>
    </contour>
    <contour>
      <point x="618" y="136" type="curve" smooth="yes"/>
      <point x="618" y="165" type="line"/>
      <point x="608" y="185" type="line"/>
      <point x="608" y="750" type="line"/>
      <point x="736" y="750" type="line"/>
      <point x="736" y="119" type="line" smooth="yes"/>
      <point x="736" y="49"/>
      <point x="750" y="18"/>
      <point x="780" y="18" type="curve" smooth="yes"/>
      <point x="812" y="18"/>
      <point x="820" y="45"/>
      <point x="820" y="121" type="curve" smooth="yes"/>
      <point x="820" y="195" type="line"/>
      <point x="845" y="195" type="line"/>
      <point x="845" y="119" type="line" smooth="yes"/>
      <point x="845" y="12"/>
      <point x="825" y="-20"/>
      <point x="742" y="-20" type="curve" smooth="yes"/>
      <point x="660" y="-20"/>
      <point x="618" y="9"/>
    </contour>
    <contour>
      <point x="447" y="750" type="move" name="top"/>
    </contour>
  </outline>
</glyph>
<glyph name="v" format="1">
  <advance width="930"/>
  <unicode hex="0076"/>
  <outline>
    <contour>
      <point x="297" y="750" type="line"/>
      <point x="406" y="750" type="line"/>
      <point x="406" y="725" type="line"/>
      <point x="297" y="725" type="line"/>
    </contour>
    <contour>
      <point x="70" y="725" type="line"/>
      <point x="70" y="750" type="line"/>
      <point x="169" y="750" type="line"/>
      <point x="169" y="725" type="line"/>
    </contour>
    <contour>
      <point x="614" y="-20"/>
      <point x="784" y="261"/>
      <point x="784" y="538" type="curve" smooth="yes"/>
      <point x="784" y="684"/>
      <point x="713" y="770"/>
      <point x="614" y="770" type="curve" smooth="yes"/>
      <point x="511" y="770"/>
      <point x="444" y="701"/>
      <point x="444" y="601" type="curve" smooth="yes"/>
      <point x="444" y="501"/>
      <point x="504" y="435"/>
      <point x="635" y="435" type="curve" smooth="yes"/>
      <point x="775" y="435"/>
      <point x="890" y="529"/>
      <point x="890" y="750" type="curve"/>
      <point x="861" y="750" type="line"/>
      <point x="867" y="549"/>
      <point x="759" y="463"/>
      <point x="647" y="463" type="curve" smooth="yes"/>
      <point x="517" y="463"/>
      <point x="472" y="513"/>
      <point x="472" y="601" type="curve" smooth="yes"/>
      <point x="472" y="691"/>
      <point x="528" y="742"/>
      <point x="615" y="742" type="curve" smooth="yes"/>
      <point x="700" y="742"/>
      <point x="755" y="666"/>
      <point x="755" y="534" type="curve" smooth="yes"/>
      <point x="755" y="272"/>
      <point x="596" y="24"/>
      <point x="388" y="24" type="curve" smooth="yes"/>
      <point x="312" y="24"/>
      <point x="297" y="44"/>
      <point x="297" y="280" type="curve" smooth="yes"/>
      <point x="297" y="750" type="line"/>
      <point x="169" y="750" type="line"/>
      <point x="169" y="280" type="line" smooth="yes"/>
      <point x="169" y="59"/>
      <point x="232" y="-20"/>
      <point x="353" y="-20" type="curve" smooth="yes"/>
    </contour>
  </outline>
</glyph>
<glyph name="w" format="1">
  <advance width="930"/>
  <unicode hex="0077"/>
  <outline>
    <contour>
      <point x="297" y="750" type="line"/>
      <point x="406" y="750" type="line"/>
      <point x="406" y="725" type="line"/>
      <point x="297" y="725" type="line"/>
    </contour>
    <contour>
      <point x="70" y="725" type="line"/>
      <point x="70" y="750" type="line"/>
      <point x="169" y="750" type="line"/>
      <point x="169" y="725" type="line"/>
    </contour>
    <contour>
      <point x="352" y="376" type="line"/>
      <point x="581" y="376" type="line"/>
      <point x="581" y="404" type="line"/>
      <point x="352" y="404" type="line"/>
    </contour>
    <contour>
      <point x="755" y="488" type="curve" smooth="yes"/>
      <point x="755" y="288"/>
      <point x="755" y="11"/>
      <point x="624" y="11" type="curve" smooth="yes"/>
      <point x="580" y="11"/>
      <point x="581" y="49"/>
      <point x="581" y="201" type="curve" smooth="yes"/>
      <point x="581" y="376" type="line"/>
      <point x="454" y="376" type="line"/>
      <point x="454" y="201" type="line" smooth="yes"/>
      <point x="454" y="62"/>
      <point x="433" y="11"/>
      <point x="370" y="11" type="curve" smooth="yes"/>
      <point x="296" y="11"/>
      <point x="297" y="66"/>
      <point x="297" y="280" type="curve" smooth="yes"/>
      <point x="297" y="750" type="line"/>
      <point x="169" y="750" type="line"/>
      <point x="169" y="280" type="line" smooth="yes"/>
      <point x="169" y="69"/>
      <point x="207" y="-20"/>
      <point x="354" y="-20" type="curve" smooth="yes"/>
      <point x="413" y="-20"/>
      <point x="449" y="1"/>
      <point x="466" y="61" type="curve"/>
      <point x="482" y="4"/>
      <point x="529" y="-20"/>
      <point x="608" y="-20" type="curve" smooth="yes"/>
      <point x="791" y="-20"/>
      <point x="784" y="280"/>
      <point x="784" y="492" type="curve" smooth="yes"/>
      <point x="784" y="684"/>
      <point x="713" y="770"/>
      <point x="614" y="770" type="curve" smooth="yes"/>
      <point x="511" y="770"/>
      <point x="444" y="701"/>
      <point x="444" y="601" type="curve" smooth="yes"/>
      <point x="444" y="501"/>
      <point x="504" y="435"/>
      <point x="635" y="435" type="curve" smooth="yes"/>
      <point x="775" y="435"/>
      <point x="890" y="529"/>
      <point x="890" y="750" type="curve"/>
      <point x="861" y="750" type="line"/>
      <point x="867" y="549"/>
      <point x="759" y="463"/>
      <point x="647" y="463" type="curve" smooth="yes"/>
      <point x="517" y="463"/>
      <point x="472" y="513"/>
      <point x="472" y="601" type="curve" smooth="yes"/>
      <point x="472" y="691"/>
      <point x="527" y="742"/>
      <point x="615" y="742" type="curve" smooth="yes"/>
      <point x="700" y="742"/>
      <point x="755" y="666"/>
    </contour>
  </outline>
</glyph>
<glyph name="x" format="1">
  <advance width="930"/>
  <unicode hex="0078"/>
  <outline>
    <contour>
      <point x="524" y="679"/>
      <point x="453" y="770"/>
      <point x="289" y="770" type="curve" smooth="yes"/>
      <point x="174" y="770"/>
      <point x="97" y="710"/>
      <point x="97" y="513" type="curve"/>
      <point x="124" y="513" type="line"/>
      <point x="124" y="676"/>
      <point x="181" y="737"/>
      <point x="249" y="737" type="curve" smooth="yes"/>
      <point x="329" y="737"/>
      <point x="404" y="623"/>
      <point x="404" y="412" type="curve" smooth="yes"/>
      <point x="404" y="151"/>
      <point x="338" y="8"/>
      <point x="236" y="8" type="curve" smooth="yes"/>
      <point x="135" y="8"/>
      <point x="106" y="119"/>
      <point x="104" y="251" type="curve"/>
      <point x="77" y="251" type="line"/>
      <point x="77" y="124"/>
      <point x="108" y="-20"/>
      <point x="239" y="-20" type="curve" smooth="yes"/>
      <point x="341" y="-20"/>
      <point x="402" y="76"/>
      <point x="432" y="263" type="curve" smooth="yes"/>
      <point x="443" y="333"/>
      <point x="524" y="357"/>
      <point x="524" y="408" type="curve" smooth="yes"/>
    </contour>
    <contour>
      <point x="405" y="408" type="curve" smooth="yes"/>
      <point x="405" y="124"/>
      <point x="483" y="-20"/>
      <point x="654" y="-20" type="curve"/>
      <point x="813" y="-20"/>
      <point x="844" y="124"/>
      <point x="844" y="251" type="curve"/>
      <point x="817" y="251" type="line"/>
      <point x="815" y="127"/>
      <point x="786" y="22"/>
      <point x="683" y="22" type="curve" smooth="yes"/>
      <point x="577" y="22"/>
      <point x="525" y="160"/>
      <point x="525" y="412" type="curve" smooth="yes"/>
      <point x="525" y="627"/>
      <point x="588" y="743"/>
      <point x="672" y="743" type="curve" smooth="yes"/>
      <point x="740" y="743"/>
      <point x="797" y="681"/>
      <point x="797" y="513" type="curve"/>
      <point x="824" y="513" type="line"/>
      <point x="824" y="710"/>
      <point x="747" y="770"/>
      <point x="667" y="770" type="curve" smooth="yes"/>
      <point x="590" y="770"/>
      <point x="527" y="692"/>
      <point x="505" y="573" type="curve" smooth="yes"/>
      <point x="491" y="495"/>
      <point x="405" y="476"/>
    </contour>
  </outline>
</glyph>
<glyph name="y" format="1">
  <advance width="930"/>
  <unicode hex="0079"/>
  <outline>
    <contour>
      <point x="736" y="739" type="line"/>
      <point x="736" y="246" type="line" smooth="yes"/>
      <point x="736" y="67"/>
      <point x="641" y="-20"/>
      <point x="436" y="-20" type="curve" smooth="yes"/>
      <point x="252" y="-20"/>
      <point x="150" y="37"/>
      <point x="150" y="169" type="curve" smooth="yes"/>
      <point x="150" y="323"/>
      <point x="292" y="343"/>
      <point x="413" y="409" type="curve"/>
      <point x="430" y="389" type="line"/>
      <point x="307" y="327"/>
      <point x="177" y="306"/>
      <point x="177" y="169" type="curve" smooth="yes"/>
      <point x="177" y="55"/>
      <point x="268" y="7"/>
      <point x="434" y="7" type="curve" smooth="yes"/>
      <point x="625" y="7"/>
      <point x="709" y="75"/>
      <point x="709" y="246" type="curve" smooth="yes"/>
      <point x="709" y="739" type="line"/>
    </contour>
    <contour>
      <point x="850" y="750" type="line"/>
      <point x="850" y="725" type="line"/>
      <point x="536" y="725" type="line"/>
      <point x="536" y="750" type="line"/>
    </contour>
    <contour>
      <point x="134" y="750" type="line"/>
      <point x="301" y="750" type="line"/>
      <point x="717" y="210" type="line"/>
      <point x="677" y="81" type="line"/>
    </contour>
    <contour>
      <point x="626" y="725" type="line"/>
      <point x="70" y="725" type="line"/>
      <point x="70" y="750" type="line"/>
      <point x="626" y="750" type="line"/>
    </contour>
    <contour>
      <point x="505" y="750" type="move" name="top"/>
    </contour>
  </outline>
</glyph>
<glyph name="z" format="1">
  <advance width="930"/>
  <unicode hex="007A"/>
  <outline>
    <contour>
      <point x="283" y="161" type="line"/>
      <point x="817" y="723" type="line"/>
      <point x="630" y="723" type="line"/>
      <point x="95" y="0" type="line"/>
      <point x="131" y="0" type="line"/>
      <point x="217" y="91" type="line" smooth="yes"/>
      <point x="260" y="136"/>
      <point x="283" y="159"/>
      <point x="323" y="159" type="curve" smooth="yes"/>
      <point x="384" y="159"/>
      <point x="537" y="-20"/>
      <point x="648" y="-20" type="curve" smooth="yes"/>
      <point x="766" y="-20"/>
      <point x="813" y="81"/>
      <point x="813" y="232" type="curve" smooth="yes"/>
      <point x="813" y="347" type="line"/>
      <point x="787" y="347" type="line"/>
      <point x="787" y="228" type="line" smooth="yes"/>
      <point x="787" y="131"/>
      <point x="759" y="92"/>
      <point x="702" y="92" type="curve" smooth="yes"/>
      <point x="637" y="92"/>
      <point x="518" y="227"/>
      <point x="434" y="227" type="curve" smooth="yes"/>
      <point x="379" y="227"/>
      <point x="331" y="206"/>
      <point x="296" y="178" type="curve"/>
    </contour>
    <contour>
      <point x="135" y="341" type="line"/>
      <point x="135" y="750" type="line"/>
      <point x="817" y="750" type="line"/>
      <point x="817" y="723" type="line"/>
      <point x="337" y="723" type="line" smooth="yes"/>
      <point x="194" y="723"/>
      <point x="161" y="690"/>
      <point x="161" y="556" type="curve" smooth="yes"/>
      <point x="161" y="341" type="line"/>
    </contour>
    <contour>
      <point x="464" y="750" type="move" name="top"/>
    </contour>
  </outline>
</glyph>
<glyph name="section" format="1">
  <advance width="930"/>
  <unicode hex="00A7"/>
  <outline>
    <contour>
      <point x="714" y="757" type="line"/>
      <point x="689" y="757" type="line"/>
      <point x="689" y="571" type="line" smooth="yes"/>
      <point x="714" y="571" type="line"/>
    </contour>
    <contour>
      <point x="713" y="364" type="curve" smooth="yes"/>
      <point x="713" y="315"/>
      <point x="657" y="285"/>
      <point x="498" y="285" type="curve" smooth="yes"/>
      <point x="326" y="285"/>
      <point x="229" y="323"/>
      <point x="229" y="386" type="curve"/>
      <point x="202" y="387" type="line"/>
      <point x="202" y="298"/>
      <point x="297" y="261"/>
      <point x="501" y="261" type="curve" smooth="yes"/>
      <point x="688" y="261"/>
      <point x="844" y="305"/>
      <point x="844" y="397" type="curve" smooth="yes"/>
      <point x="844" y="471"/>
      <point x="785" y="525"/>
      <point x="518" y="573" type="curve" smooth="yes"/>
      <point x="326" y="607"/>
      <point x="289" y="616"/>
      <point x="289" y="668" type="curve" smooth="yes"/>
      <point x="289" y="723"/>
      <point x="344" y="743"/>
      <point x="455" y="743" type="curve" smooth="yes"/>
      <point x="575" y="743"/>
      <point x="689" y="686"/>
      <point x="689" y="579" type="curve" smooth="yes"/>
      <point x="689" y="571" type="line"/>
      <point x="711" y="571" type="line"/>
      <point x="711" y="710"/>
      <point x="582" y="770"/>
      <point x="440" y="770" type="curve" smooth="yes"/>
      <point x="311" y="770"/>
      <point x="168" y="726"/>
      <point x="168" y="642" type="curve" smooth="yes"/>
      <point x="168" y="562"/>
      <point x="244" y="518"/>
      <point x="450" y="481" type="curve" smooth="yes"/>
      <point x="669" y="440"/>
      <point x="713" y="425"/>
    </contour>
    <contour>
      <point x="188" y="-7" type="line"/>
      <point x="213" y="-7" type="line"/>
      <point x="213" y="179" type="line" smooth="yes"/>
      <point x="188" y="179" type="line"/>
    </contour>
    <contour>
      <point x="229" y="386" type="curve" smooth="yes"/>
      <point x="229" y="435"/>
      <point x="285" y="465"/>
      <point x="444" y="465" type="curve" smooth="yes"/>
      <point x="616" y="465"/>
      <point x="713" y="428"/>
      <point x="713" y="364" type="curve"/>
      <point x="740" y="366" type="line"/>
      <point x="740" y="454"/>
      <point x="645" y="489"/>
      <point x="441" y="489" type="curve" smooth="yes"/>
      <point x="254" y="489"/>
      <point x="98" y="445"/>
      <point x="98" y="353" type="curve" smooth="yes"/>
      <point x="98" y="279"/>
      <point x="157" y="225"/>
      <point x="424" y="177" type="curve" smooth="yes"/>
      <point x="616" y="143"/>
      <point x="653" y="134"/>
      <point x="653" y="82" type="curve" smooth="yes"/>
      <point x="653" y="27"/>
      <point x="591" y="7"/>
      <point x="467" y="7" type="curve" smooth="yes"/>
      <point x="337" y="7"/>
      <point x="213" y="64"/>
      <point x="213" y="171" type="curve" smooth="yes"/>
      <point x="213" y="179" type="line"/>
      <point x="191" y="179" type="line"/>
      <point x="191" y="40"/>
      <point x="330" y="-20"/>
      <point x="482" y="-20" type="curve" smooth="yes"/>
      <point x="620" y="-20"/>
      <point x="774" y="24"/>
      <point x="774" y="108" type="curve" smooth="yes"/>
      <point x="774" y="188"/>
      <point x="698" y="232"/>
      <point x="492" y="269" type="curve" smooth="yes"/>
      <point x="273" y="310"/>
      <point x="229" y="325"/>
    </contour>
    <contour>
      <point x="442.0" y="750.0" type="move" name="top"/>
    </contour>
  </outline>
</glyph>
<glyph name="acute" format="1">
  <advance width="600"/>
  <unicode hex="00B4"/>
  <outline>
    <contour>
      <point x="529" y="917" type="line"/>
      <point x="401" y="855"/>
      <point x="295" y="828"/>
      <point x="64" y="815" type="curve"/>
      <point x="64" y="800" type="line"/>
      <point x="295" y="800"/>
      <point x="407" y="801"/>
      <point x="529" y="854" type="curve"/>
    </contour>
    <contour>
      <point x="308" y="750" type="move" name="_top"/>
    </contour>
  </outline>
</glyph>
<glyph name="cedilla" format="1">
  <advance width="930"/>
  <unicode hex="00B8"/>
  <outline>
    <contour>
      <point x="404" y="-58" type="line"/>
      <point x="497" y="-16" type="line"/>
      <point x="489" y="2" type="line"/>
      <point x="332" y="-68" type="line"/>
      <point x="342" y="-87" type="line"/>
      <point x="376" y="-69" type="line"/>
    </contour>
    <contour>
      <point x="334" y="-70" type="curve"/>
      <point x="342" y="-87" type="line"/>
      <point x="383" y="-70"/>
      <point x="422" y="-72"/>
      <point x="496" y="-72" type="curve" smooth="yes"/>
      <point x="640" y="-72"/>
      <point x="666" y="-83"/>
      <point x="666" y="-97" type="curve" smooth="yes"/>
      <point x="666" y="-113"/>
      <point x="643" y="-123"/>
      <point x="493" y="-123" type="curve" smooth="yes"/>
      <point x="397" y="-123"/>
      <point x="339" y="-118"/>
      <point x="281" y="-92" type="curve"/>
      <point x="268" y="-118" type="line"/>
      <point x="330" y="-145"/>
      <point x="391" y="-150"/>
      <point x="494" y="-150" type="curve" smooth="yes"/>
      <point x="656" y="-150"/>
      <point x="693" y="-134"/>
      <point x="693" y="-97" type="curve" smooth="yes"/>
      <point x="693" y="-61"/>
      <point x="651" y="-47"/>
      <point x="496" y="-47" type="curve" smooth="yes"/>
      <point x="451" y="-47"/>
      <point x="373" y="-53"/>
    </contour>
    <contour>
      <point x="495.0" y="0.0" type="move" name="bottom"/>
    </contour>
  </outline>
</glyph>
<glyph name="Eth" format="1">
  <advance width="930"/>
  <unicode hex="00D0"/>
  <outline>
    <contour>
      <point x="518" y="398" type="line"/>
      <point x="70" y="398" type="line"/>
      <point x="70" y="425" type="line"/>
      <point x="518" y="425" type="line"/>
    </contour>
    <component base="D"/>
  </outline>
</glyph>
<glyph name="Oslash" format="1">
  <advance width="930"/>
  <unicode hex="00D8"/>
  <outline>
    <contour>
      <point x="167" y="0" type="line"/>
      <point x="798" y="750" type="line"/>
      <point x="763" y="750" type="line"/>
      <point x="132" y="0" type="line" smooth="yes"/>
    </contour>
    <component base="O"/>
  </outline>
</glyph>
<glyph name="dotlessi" format="1">
  <advance width="930"/>
  <unicode hex="0131"/>
  <outline>
    <contour>
      <point x="529" y="0" type="line"/>
      <point x="401" y="0" type="line"/>
      <point x="401" y="590" type="line"/>
      <point x="529" y="590" type="line"/>
    </contour>
    <contour>
      <point x="839" y="25" type="line"/>
      <point x="839" y="0" type="line"/>
      <point x="507" y="0" type="line"/>
      <point x="507" y="25" type="line"/>
    </contour>
    <contour>
      <point x="423" y="0" type="line"/>
      <point x="90" y="0" type="line"/>
      <point x="90" y="25" type="line"/>
      <point x="423" y="25" type="line"/>
    </contour>
    <contour>
      <point x="90" y="565" type="line"/>
      <point x="90" y="590" type="line"/>
      <point x="428" y="590" type="line"/>
      <point x="428" y="565" type="line"/>
    </contour>
    <contour>
      <point x="840" y="590" type="line"/>
      <point x="840" y="565" type="line"/>
      <point x="507" y="565" type="line"/>
      <point x="507" y="590" type="line"/>
    </contour>
    <contour>
      <point x="466" y="550" type="move" name="top"/>
    </contour>
  </outline>
</glyph>
<glyph name="Lslash" format="1">
  <advance width="930"/>
  <unicode hex="0141"/>
  <outline>
    <contour>
      <point x="583" y="513" type="line"/>
      <point x="70" y="266" type="line"/>
      <point x="70" y="296" type="line"/>
      <point x="583" y="543" type="line"/>
    </contour>
    <component base="L"/>
  </outline>
</glyph>
<glyph name="lslash" format="1">
  <advance width="930"/>
  <unicode hex="0142"/>
  <outline>
    <contour>
      <point x="583" y="513" type="line"/>
      <point x="70" y="266" type="line"/>
      <point x="70" y="296" type="line"/>
      <point x="583" y="543" type="line"/>
    </contour>
    <component base="l"/>
  </outline>
</glyph>
<glyph name="OE" format="1">
  <advance width="930"/>
  <unicode hex="0152"/>
  <outline>
    <contour>
      <point x="559" y="0" type="line"/>
      <point x="431" y="0" type="line"/>
      <point x="431" y="750" type="line"/>
      <point x="559" y="750" type="line"/>
    </contour>
    <contour>
      <point x="690" y="394" type="line"/>
      <point x="690" y="367" type="line"/>
      <point x="479" y="367" type="line"/>
      <point x="479" y="394" type="line"/>
    </contour>
    <contour>
      <point x="781" y="461" type="line"/>
      <point x="756" y="461" type="line"/>
      <point x="756" y="566" type="line" smooth="yes"/>
      <point x="756" y="694"/>
      <point x="729" y="723"/>
      <point x="599" y="723" type="curve" smooth="yes"/>
      <point x="498" y="723" type="line"/>
      <point x="498" y="750" type="line"/>
      <point x="781" y="750" type="line"/>
    </contour>
    <contour>
      <point x="800" y="289" type="line"/>
      <point x="800" y="0" type="line"/>
      <point x="498" y="0" type="line"/>
      <point x="498" y="27" type="line"/>
      <point x="598" y="27" type="line" smooth="yes"/>
      <point x="742" y="27"/>
      <point x="775" y="60"/>
      <point x="775" y="194" type="curve" smooth="yes"/>
      <point x="775" y="289" type="line"/>
    </contour>
    <contour>
      <point x="676" y="202" type="line"/>
      <point x="676" y="545" type="line"/>
      <point x="701" y="545" type="line"/>
      <point x="701" y="202" type="line"/>
    </contour>
    <contour>
      <point x="448" y="750" type="line"/>
      <point x="448" y="724" type="line"/>
      <point x="408" y="724" type="line" smooth="yes"/>
      <point x="278.0" y="724"/>
      <point x="230" y="633"/>
      <point x="230" y="374" type="curve" smooth="yes"/>
      <point x="230" y="116"/>
      <point x="277.0" y="26"/>
      <point x="406" y="26" type="curve" smooth="yes"/>
      <point x="450" y="26" type="line"/>
      <point x="450" y="0" type="line"/>
      <point x="386" y="0" type="line" smooth="yes"/>
      <point x="191" y="0"/>
      <point x="90" y="118"/>
      <point x="90" y="375" type="curve" smooth="yes"/>
      <point x="90" y="632"/>
      <point x="191" y="750"/>
      <point x="389" y="750" type="curve" smooth="yes"/>
    </contour>
    <contour>
      <point x="482.0" y="750.0" type="move" name="top"/>
    </contour>
  </outline>
</glyph>
<glyph name="oe" format="1">
  <advance width="930"/>
  <unicode hex="0153"/>
  <outline>
    <contour>
      <point x="825" y="282" type="line"/>
      <point x="825" y="96"/>
      <point x="762" y="9"/>
      <point x="658" y="9" type="curve" smooth="yes"/>
      <point x="574" y="9"/>
      <point x="542" y="120"/>
      <point x="542" y="367" type="curve" smooth="yes"/>
      <point x="542" y="630"/>
      <point x="566" y="743"/>
      <point x="624" y="743" type="curve"/>
      <point x="688" y="743"/>
      <point x="714" y="625"/>
      <point x="712" y="351" type="curve"/>
      <point x="852" y="351" type="line"/>
      <point x="854" y="621"/>
      <point x="779" y="770"/>
      <point x="623" y="770" type="curve"/>
      <point x="476" y="770"/>
      <point x="402" y="627"/>
      <point x="402" y="368" type="curve" smooth="yes"/>
      <point x="402" y="116"/>
      <point x="484" y="-20"/>
      <point x="658" y="-20" type="curve" smooth="yes"/>
      <point x="781" y="-20"/>
      <point x="852" y="86"/>
      <point x="852" y="282" type="curve"/>
    </contour>
    <contour>
      <point x="738" y="378" type="curve"/>
      <point x="518" y="378" type="line"/>
      <point x="520" y="351" type="line"/>
      <point x="738" y="351" type="line"/>
      <point x="738" y="351"/>
      <point x="738" y="378"/>
    </contour>
    <contour>
      <point x="311" y="770" type="curve" smooth="yes"/>
      <point x="159" y="770"/>
      <point x="82" y="627"/>
      <point x="82" y="368" type="curve" smooth="yes"/>
      <point x="82" y="117"/>
      <point x="161" y="-20"/>
      <point x="311" y="-20" type="curve" smooth="yes"/>
      <point x="461" y="-20"/>
      <point x="542" y="117"/>
      <point x="542" y="368" type="curve" smooth="yes"/>
      <point x="542" y="627"/>
      <point x="465" y="770"/>
    </contour>
    <contour>
      <point x="311" y="743" type="curve" smooth="yes"/>
      <point x="374" y="743"/>
      <point x="402" y="630"/>
      <point x="402" y="367" type="curve" smooth="yes"/>
      <point x="402" y="120"/>
      <point x="373" y="7"/>
      <point x="311" y="7" type="curve" smooth="yes"/>
      <point x="250" y="7"/>
      <point x="222" y="120"/>
      <point x="222" y="367" type="curve" smooth="yes"/>
      <point x="222" y="630"/>
      <point x="249" y="743"/>
    </contour>
  </outline>
</glyph>
<glyph name="dotlessj" format="1">
  <advance width="930"/>
  <unicode hex="0237"/>
  <outline>
    <contour>
      <point x="777" y="590" type="line"/>
      <point x="777" y="563" type="line"/>
      <point x="330" y="563" type="line"/>
      <point x="330" y="590" type="line"/>
    </contour>
    <contour>
      <point x="777" y="590" type="line"/>
      <point x="777" y="563" type="line"/>
      <point x="629" y="563" type="line"/>
      <point x="629" y="590" type="line"/>
    </contour>
    <contour>
      <point x="777" y="582" type="line"/>
      <point x="777" y="297" type="line" smooth="yes"/>
      <point x="777" y="84"/>
      <point x="672" y="-20"/>
      <point x="427" y="-20" type="curve" smooth="yes"/>
      <point x="219" y="-20"/>
      <point x="91" y="57"/>
      <point x="91" y="192" type="curve" smooth="yes"/>
      <point x="91" y="457"/>
      <point x="627" y="374"/>
      <point x="649" y="562" type="curve"/>
      <point x="665" y="544" type="line"/>
      <point x="655" y="513" type="line"/>
      <point x="597" y="359"/>
      <point x="118" y="416"/>
      <point x="118" y="192" type="curve" smooth="yes"/>
      <point x="118" y="60"/>
      <point x="257" y="7"/>
      <point x="425" y="7" type="curve" smooth="yes"/>
      <point x="611" y="7"/>
      <point x="649" y="79"/>
      <point x="649" y="297" type="curve" smooth="yes"/>
      <point x="649" y="582" type="line"/>
    </contour>
  </outline>
</glyph>
<glyph name="caron" format="1">
  <advance width="600"/>
  <unicode hex="02C7"/>
  <outline>
    <contour>
      <point x="300" y="780" type="curve"/>
      <point x="300" y="838" type="line"/>
      <point x="228" y="893"/>
      <point x="172" y="907"/>
      <point x="65" y="917" type="curve"/>
      <point x="65" y="902" type="line"/>
      <point x="172" y="885"/>
      <point x="223" y="853"/>
    </contour>
    <contour>
      <point x="300" y="780" type="line"/>
      <point x="377" y="853"/>
      <point x="428" y="885"/>
      <point x="535" y="902" type="curve"/>
      <point x="535" y="917" type="line"/>
      <point x="428" y="907"/>
      <point x="372" y="893"/>
      <point x="300" y="838" type="curve"/>
    </contour>
    <contour>
      <point x="300.0" y="750.0" type="move" name="_top"/>
    </contour>
  </outline>
</glyph>
<glyph name="breve" format="1">
  <advance width="560"/>
  <unicode hex="02D8"/>
  <outline>
    <contour>
      <point x="479" y="903" type="line"/>
      <point x="479.0" y="831.0943396226415"/>
      <point x="442.0" y="800.0"/>
      <point x="280" y="800" type="curve" smooth="yes"/>
      <point x="118.0" y="800.0"/>
      <point x="81.0" y="831.0943396226415"/>
      <point x="81" y="903" type="curve"/>
      <point x="108" y="903" type="line"/>
      <point x="108.0" y="862.3846153846155"/>
      <point x="131.0" y="837.0"/>
      <point x="279" y="837" type="curve" smooth="yes"/>
      <point x="429.0" y="837.0"/>
      <point x="452.0" y="862.3846153846155"/>
      <point x="452" y="903" type="curve"/>
    </contour>
    <contour>
      <point x="282.0" y="750.0" type="move" name="_top"/>
    </contour>
  </outline>
</glyph>
<glyph name="ring" format="1">
  <advance width="560"/>
  <unicode hex="02DA"/>
  <outline>
    <contour>
      <point x="108" y="853" type="curve" smooth="yes"/>
      <point x="108" y="869"/>
      <point x="131" y="879"/>
      <point x="279" y="879" type="curve" smooth="yes"/>
      <point x="429" y="879"/>
      <point x="452" y="869"/>
      <point x="452" y="853" type="curve" smooth="yes"/>
      <point x="452" y="837"/>
      <point x="429" y="827"/>
      <point x="279" y="827" type="curve" smooth="yes"/>
      <point x="131" y="827"/>
      <point x="108" y="837"/>
    </contour>
    <contour>
      <point x="479" y="853" type="curve" smooth="yes"/>
      <point x="479" y="890"/>
      <point x="442" y="906"/>
      <point x="280" y="906" type="curve" smooth="yes"/>
      <point x="118" y="906"/>
      <point x="81" y="890"/>
      <point x="81" y="853" type="curve" smooth="yes"/>
      <point x="81" y="816"/>
      <point x="118" y="800"/>
      <point x="280" y="800" type="curve" smooth="yes"/>
      <point x="442" y="800"/>
      <point x="479" y="816"/>
    </contour>
    <contour>
      <point x="282" y="750" type="move" name="_top"/>
    </contour>
  </outline>
</glyph>
<glyph name="tilde" format="1">
  <advance width="930"/>
  <unicode hex="02DC"/>
  <outline>
    <contour>
      <point x="365" y="896" type="curve" smooth="yes"/>
      <point x="299" y="896"/>
      <point x="272" y="861"/>
      <point x="272" y="800" type="curve"/>
      <point x="295" y="800" type="line"/>
      <point x="295" y="838"/>
      <point x="332" y="852"/>
      <point x="356" y="852" type="curve"/>
      <point x="423" y="852"/>
      <point x="500" y="800"/>
      <point x="565" y="800" type="curve" smooth="yes"/>
      <point x="631" y="800"/>
      <point x="658" y="835"/>
      <point x="658" y="896" type="curve"/>
      <point x="635" y="896" type="line"/>
      <point x="635" y="858"/>
      <point x="598" y="844"/>
      <point x="574" y="844" type="curve" smooth="yes"/>
      <point x="521" y="844"/>
      <point x="434" y="896"/>
    </contour>
    <contour>
      <point x="468" y="750" type="move" name="_top"/>
    </contour>
  </outline>
</glyph>
<glyph name="hungarumlaut" format="1">
  <advance width="600"/>
  <unicode hex="02DD"/>
  <outline>
    <contour>
      <point x="299" y="917" type="line"/>
      <point x="231" y="857"/>
      <point x="166" y="822"/>
      <point x="64" y="815" type="curve"/>
      <point x="64" y="800" type="line"/>
      <point x="172" y="800"/>
      <point x="233" y="809"/>
      <point x="299" y="854" type="curve"/>
    </contour>
    <contour>
      <point x="529" y="917" type="line"/>
      <point x="461" y="857"/>
      <point x="396" y="822"/>
      <point x="294" y="815" type="curve"/>
      <point x="294" y="800" type="line"/>
      <point x="402" y="800"/>
      <point x="463" y="809"/>
      <point x="529" y="854" type="curve"/>
    </contour>
    <contour>
      <point x="308.0" y="750.0" type="move" name="_top"/>
    </contour>
  </outline>
</glyph>
<glyph name="endash" format="1">
  <advance width="465"/>
  <unicode hex="2013"/>
  <outline>
    <contour>
      <point x="395" y="398" type="line"/>
      <point x="70" y="398" type="line"/>
      <point x="70" y="425" type="line"/>
      <point x="395" y="425" type="line"/>
    </contour>
  </outline>
</glyph>
<glyph name="emdash" format="1">
  <advance width="930"/>
  <unicode hex="2014"/>
  <outline>
    <contour>
      <point x="845" y="398" type="line"/>
      <point x="85" y="398" type="line"/>
      <point x="85" y="425" type="line"/>
      <point x="845" y="425" type="line"/>
    </contour>
  </outline>
</glyph>
<glyph name="quoteright" format="1">
  <advance width="465"/>
  <unicode hex="2019"/>
  <outline>
    <contour>
      <point x="173" y="773" type="line"/>
      <point x="91" y="480" type="line"/>
      <point x="65" y="487" type="line"/>
      <point x="152" y="800" type="line"/>
    </contour>
    <contour>
      <point x="173" y="773" type="line"/>
      <point x="66" y="773" type="line"/>
      <point x="66" y="800" type="line"/>
      <point x="173" y="800" type="line"/>
    </contour>
  </outline>
</glyph>
<glyph name="guilsinglleft" format="1">
  <advance width="465"/>
  <unicode hex="2039"/>
  <outline>
    <contour>
      <point x="135" y="397" type="line"/>
      <point x="214" y="314"/>
      <point x="250" y="269"/>
      <point x="277" y="162" type="curve"/>
      <point x="292" y="162" type="line"/>
      <point x="272" y="269"/>
      <point x="254" y="318"/>
      <point x="193" y="397" type="curve"/>
    </contour>
    <contour>
      <point x="135" y="397" type="curve"/>
      <point x="193" y="397" type="line"/>
      <point x="254" y="476"/>
      <point x="272" y="525"/>
      <point x="292" y="632" type="curve"/>
      <point x="277" y="632" type="line"/>
      <point x="250" y="525"/>
      <point x="214" y="480"/>
    </contour>
  </outline>
</glyph>
<glyph name="Euro" format="1">
  <advance width="930"/>
  <unicode hex="20AC"/>
  <outline>
    <contour>
      <point x="630" y="458" type="line"/>
      <point x="630" y="485" type="line"/>
      <point x="49" y="367" type="line"/>
      <point x="49" y="340" type="line"/>
    </contour>
    <contour>
      <point x="820" y="421" type="line"/>
      <point x="820" y="750" type="line"/>
      <point x="795" y="750" type="line"/>
      <point x="795" y="421" type="line"/>
    </contour>
    <contour>
      <point x="840" y="1" type="line"/>
      <point x="840" y="311" type="line"/>
      <point x="815" y="311" type="line"/>
      <point x="815" y="1" type="line"/>
    </contour>
    <contour>
      <point x="815" y="311" type="line"/>
      <point x="815.0" y="105.0"/>
      <point x="701.5862068965517" y="9.0"/>
      <point x="516" y="9" type="curve" smooth="yes"/>
      <point x="335.72222222222223" y="9.0"/>
      <point x="280.0" y="110.0"/>
      <point x="280" y="367" type="curve" smooth="yes"/>
      <point x="280.0" y="640.0"/>
      <point x="332.5497630331754" y="743.0"/>
      <point x="511" y="743" type="curve" smooth="yes"/>
      <point x="702.5131578947369" y="743.0"/>
      <point x="795.0" y="629.0"/>
      <point x="795" y="421" type="curve"/>
      <point x="820" y="421" type="line"/>
      <point x="820.0" y="643.0"/>
      <point x="712.9090909090909" y="770.0"/>
      <point x="510" y="770" type="curve" smooth="yes"/>
      <point x="255.2285714285714" y="770.0"/>
      <point x="140.0" y="627.0"/>
      <point x="140" y="368" type="curve" smooth="yes"/>
      <point x="140.0" y="116.0"/>
      <point x="259.3483146067416" y="-20.0"/>
      <point x="516" y="-20" type="curve" smooth="yes"/>
      <point x="721.3255813953489" y="-20.0"/>
      <point x="840.0" y="96.0"/>
      <point x="840" y="311" type="curve"/>
    </contour>
    <contour>
      <point x="629" y="346" type="line"/>
      <point x="629" y="373" type="line"/>
      <point x="49" y="255" type="line"/>
      <point x="49" y="227" type="line"/>
    </contour>
  </outline>
</glyph>
<glyph name="squareblack" format="1">
  <advance width="930"/>
  <unicode hex="25A0"/>
  <outline>
    <contour>
      <point x="323" y="538" type="line"/>
      <point x="323" y="247" type="line"/>
      <point x="607" y="247" type="line"/>
      <point x="607" y="538" type="line"/>
    </contour>
  </outline>
</glyph>
<glyph name="triangleupblack" format="1">
  <advance width="930"/>
  <unicode hex="25B2"/>
  <outline>
    <contour>
      <point x="45" y="0" type="line"/>
      <point x="885" y="0" type="line"/>
      <point x="465" y="800" type="line"/>
    </contour>
  </outline>
</glyph>
<glyph name="triangleupwhite" format="1">
  <advance width="930"/>
  <unicode hex="25B3"/>
  <outline>
    <contour>
      <point x="45" y="0" type="line"/>
      <point x="465" y="800" type="line"/>
      <point x="885" y="0" type="line"/>
    </contour>
    <contour>
      <point x="465" y="737" type="line"/>
      <point x="93" y="29" type="line"/>
      <point x="837" y="29" type="line"/>
    </contour>
  </outline>
</glyph>
<glyph name="gmtr:diamondblack" format="1">
  <advance width="930"/>
  <unicode hex="25C6"/>
  <outline>
    <contour>
      <point x="465" y="95" type="line"/>
      <point x="767" y="398" type="line"/>
      <point x="465" y="699" type="line"/>
      <point x="163" y="398" type="line"/>
    </contour>
  </outline>
</glyph>
<glyph name="circlewhite" format="1">
  <advance width="930"/>
  <unicode hex="25CB"/>
  <outline>
    <contour>
      <point x="464" y="770" type="curve" smooth="yes"/>
      <point x="216" y="770"/>
      <point x="90" y="627"/>
      <point x="90" y="368" type="curve" smooth="yes"/>
      <point x="90" y="117"/>
      <point x="219" y="-20"/>
      <point x="464" y="-20" type="curve" smooth="yes"/>
      <point x="710" y="-20"/>
      <point x="839.0" y="117.0"/>
      <point x="839" y="368" type="curve" smooth="yes"/>
      <point x="839.0" y="627.0"/>
      <point x="713" y="770"/>
    </contour>
    <contour>
      <point x="464" y="9" type="curve" smooth="yes"/>
      <point x="242.00000000000003" y="9.0"/>
      <point x="119.0" y="124.35555555555555"/>
      <point x="119" y="367" type="curve" smooth="yes"/>
      <point x="119.0" y="620.0"/>
      <point x="235.3256484149856" y="741.0"/>
      <point x="464" y="741" type="curve" smooth="yes"/>
      <point x="693.6724137931035" y="741.0"/>
      <point x="810.0" y="620.0"/>
      <point x="810" y="367" type="curve" smooth="yes"/>
      <point x="810.0" y="124.35555555555555"/>
      <point x="688.0" y="9.0"/>
    </contour>
    <contour>
      <point x="464.0" y="750.0" type="move" name="top"/>
    </contour>
  </outline>
</glyph>
<glyph name="checkbox" format="1">
  <advance width="930"/>
  <unicode hex="2610"/>
  <outline>
    <contour>
      <point x="236" y="719" type="line"/>
      <point x="130" y="616" type="line"/>
      <point x="130" y="68" type="line"/>
      <point x="689" y="68" type="line"/>
      <point x="799" y="176" type="line"/>
      <point x="799" y="719" type="line"/>
    </contour>
    <contour>
      <point x="159" y="596" type="line"/>
      <point x="671" y="596" type="line"/>
      <point x="671" y="97" type="line"/>
      <point x="159" y="97" type="line"/>
    </contour>
  </outline>
</glyph>
<glyph name="dngb:asteriskballoonfour" format="1">
  <advance width="930"/>
  <unicode hex="2723"/>
  <outline>
    <contour>
      <point x="453" y="376" type="curve" smooth="yes"/>
      <point x="453" y="545"/>
      <point x="364" y="567"/>
      <point x="364" y="662" type="curve" smooth="yes"/>
      <point x="364" y="710"/>
      <point x="400" y="759"/>
      <point x="465" y="759" type="curve" smooth="yes"/>
      <point x="530" y="759"/>
      <point x="566" y="710"/>
      <point x="566" y="662" type="curve" smooth="yes"/>
      <point x="566" y="567"/>
      <point x="477" y="545"/>
      <point x="477" y="376" type="curve" smooth="yes"/>
      <point x="477" y="207"/>
      <point x="566" y="185"/>
      <point x="566" y="90" type="curve" smooth="yes"/>
      <point x="566" y="42"/>
      <point x="530" y="-7"/>
      <point x="465" y="-7" type="curve" smooth="yes"/>
      <point x="400" y="-7"/>
      <point x="364" y="42"/>
      <point x="364" y="90" type="curve" smooth="yes"/>
      <point x="364" y="185"/>
      <point x="453" y="207"/>
    </contour>
    <contour>
      <point x="465" y="364" type="curve" smooth="yes"/>
      <point x="296" y="364"/>
      <point x="274" y="275"/>
      <point x="179" y="275" type="curve" smooth="yes"/>
      <point x="131" y="275"/>
      <point x="82" y="311"/>
      <point x="82" y="376" type="curve" smooth="yes"/>
      <point x="82" y="441"/>
      <point x="131" y="477"/>
      <point x="179" y="477" type="curve" smooth="yes"/>
      <point x="274" y="477"/>
      <point x="296" y="388"/>
      <point x="465" y="388" type="curve" smooth="yes"/>
      <point x="634" y="388"/>
      <point x="656" y="477"/>
      <point x="751" y="477" type="curve" smooth="yes"/>
      <point x="799" y="477"/>
      <point x="848" y="441"/>
      <point x="848" y="376" type="curve" smooth="yes"/>
      <point x="848" y="311"/>
      <point x="799" y="275"/>
      <point x="751" y="275" type="curve" smooth="yes"/>
      <point x="656" y="275"/>
      <point x="634" y="364"/>
    </contour>
  </outline>
</glyph>
<glyph name="dngb:asteriskclubfour" format="1">
  <advance width="930"/>
  <unicode hex="2725"/>
  <outline>
    <contour>
      <point x="477" y="375" type="curve" smooth="yes"/>
      <point x="477" y="206"/>
      <point x="524" y="157"/>
      <point x="576" y="89" type="curve"/>
      <point x="576" y="41"/>
      <point x="536" y="-8"/>
      <point x="465" y="-8" type="curve" smooth="yes"/>
      <point x="394" y="-8"/>
      <point x="354" y="41"/>
      <point x="354" y="89" type="curve"/>
      <point x="406" y="157"/>
      <point x="453" y="206"/>
      <point x="453" y="375" type="curve" smooth="yes"/>
      <point x="453" y="544"/>
      <point x="406" y="593"/>
      <point x="354" y="661" type="curve"/>
      <point x="354" y="709"/>
      <point x="394" y="758"/>
      <point x="465" y="758" type="curve" smooth="yes"/>
      <point x="536" y="758"/>
      <point x="576" y="709"/>
      <point x="576" y="661" type="curve"/>
      <point x="524" y="593"/>
      <point x="477" y="544"/>
    </contour>
    <contour>
      <point x="465" y="387" type="curve" smooth="yes"/>
      <point x="634" y="387"/>
      <point x="683" y="434"/>
      <point x="751" y="486" type="curve"/>
      <point x="799" y="486"/>
      <point x="848" y="446"/>
      <point x="848" y="375" type="curve" smooth="yes"/>
      <point x="848" y="304"/>
      <point x="799" y="264"/>
      <point x="751" y="264" type="curve"/>
      <point x="683" y="316"/>
      <point x="634" y="363"/>
      <point x="465" y="363" type="curve" smooth="yes"/>
      <point x="296" y="363"/>
      <point x="247" y="316"/>
      <point x="179" y="264" type="curve"/>
      <point x="131" y="264"/>
      <point x="82" y="304"/>
      <point x="82" y="375" type="curve" smooth="yes"/>
      <point x="82" y="446"/>
      <point x="131" y="486"/>
      <point x="179" y="486" type="curve"/>
      <point x="247" y="434"/>
      <point x="296" y="387"/>
    </contour>
  </outline>
</glyph>
<glyph name="dngb:starpointedblackfour" format="1">
  <advance width="930"/>
  <unicode hex="2726"/>
  <outline>
    <contour>
      <point x="767" y="403" type="line"/>
      <point x="622" y="463"/>
      <point x="530" y="554"/>
      <point x="470" y="699" type="curve"/>
      <point x="460" y="699" type="line"/>
      <point x="400" y="554"/>
      <point x="308" y="463"/>
      <point x="163" y="403" type="curve"/>
      <point x="163" y="393" type="line"/>
      <point x="308" y="333"/>
      <point x="400" y="242"/>
      <point x="460" y="97" type="curve"/>
      <point x="470" y="97" type="line"/>
      <point x="530" y="242"/>
      <point x="622" y="333"/>
      <point x="767" y="393" type="curve"/>
    </contour>
  </outline>
</glyph>
<glyph name="dngb:starcentreblackwhite" format="1">
  <advance width="930"/>
  <unicode hex="272C"/>
  <outline>
    <contour>
      <point x="465" y="266" type="curve" smooth="yes"/>
      <point x="402" y="266"/>
      <point x="350" y="318"/>
      <point x="350" y="381" type="curve" smooth="yes"/>
      <point x="350" y="444"/>
      <point x="402" y="496"/>
      <point x="465" y="496" type="curve" smooth="yes"/>
      <point x="528" y="496"/>
      <point x="580" y="444"/>
      <point x="580" y="381" type="curve" smooth="yes"/>
      <point x="580" y="318"/>
      <point x="528" y="266"/>
    </contour>
    <component base="starwhite"/>
  </outline>
</glyph>
<glyph name="dngb:starpinwheel" format="1">
  <advance width="930"/>
  <unicode hex="272F"/>
  <outline>
    <contour>
      <point x="465" y="238" type="line"/>
      <point x="244" y="81" type="line"/>
      <point x="330" y="337" type="line"/>
      <point x="108" y="501" type="line"/>
      <point x="381" y="495" type="line"/>
      <point x="465" y="760" type="line"/>
      <point x="549" y="495" type="line"/>
      <point x="822" y="501" type="line"/>
      <point x="600" y="337" type="line"/>
      <point x="686" y="81" type="line"/>
    </contour>
    <contour>
      <point x="465" y="381" type="line"/>
      <point x="465" y="691" type="line"/>
      <point x="396" y="475" type="line"/>
    </contour>
    <contour>
      <point x="465" y="381" type="line"/>
      <point x="759" y="479" type="line"/>
      <point x="534" y="475" type="line"/>
    </contour>
    <contour>
      <point x="465" y="381" type="line"/>
      <point x="171" y="479" type="line"/>
      <point x="354" y="345" type="line"/>
    </contour>
    <contour>
      <point x="465" y="381" type="line"/>
      <point x="282" y="134" type="line"/>
      <point x="465" y="263" type="line"/>
    </contour>
    <contour>
      <point x="465" y="381" type="line"/>
      <point x="648" y="134" type="line"/>
      <point x="576" y="345" type="line"/>
    </contour>
  </outline>
</glyph>
<glyph name="centreddotwhitediamond" format="1">
  <advance width="930"/>
  <unicode hex="27D0"/>
  <outline>
    <contour>
      <point x="465" y="478" type="curve" smooth="yes"/>
      <point x="522" y="478"/>
      <point x="548" y="452"/>
      <point x="548" y="391" type="curve" smooth="yes"/>
      <point x="548" y="340"/>
      <point x="522" y="314"/>
      <point x="465" y="314" type="curve" smooth="yes"/>
      <point x="410" y="314"/>
      <point x="384" y="339"/>
      <point x="384" y="391" type="curve" smooth="yes"/>
      <point x="384" y="452"/>
      <point x="410" y="478"/>
    </contour>
    <contour>
      <point x="767" y="398" type="line"/>
      <point x="465" y="699" type="line"/>
      <point x="163" y="398" type="line"/>
      <point x="465" y="95" type="line"/>
    </contour>
    <contour>
      <point x="204" y="398" type="line"/>
      <point x="465" y="658" type="line"/>
      <point x="726" y="398" type="line"/>
      <point x="465" y="136" type="line"/>
    </contour>
  </outline>
</glyph>
<glyph name="bullet.006" format="1">
  <advance width="930"/>
  <unicode hex="E0BA"/>
  <outline>
    <contour>
      <point x="556" y="703" type="curve" smooth="yes"/>
      <point x="625" y="703"/>
      <point x="683" y="688"/>
      <point x="713" y="667" type="curve"/>
      <point x="710" y="654" type="line"/>
      <point x="635" y="627"/>
      <point x="552" y="522"/>
      <point x="552" y="396" type="curve" smooth="yes"/>
      <point x="552" y="270"/>
      <point x="635" y="165"/>
      <point x="710" y="139" type="curve"/>
      <point x="713" y="125" type="line"/>
      <point x="683" y="105"/>
      <point x="620" y="89"/>
      <point x="552" y="89" type="curve" smooth="yes"/>
      <point x="380" y="89"/>
      <point x="210" y="202"/>
      <point x="210" y="396" type="curve" smooth="yes"/>
      <point x="210" y="590"/>
      <point x="380" y="703"/>
    </contour>
    <contour>
      <point x="370" y="396" type="curve" smooth="yes"/>
      <point x="370" y="532"/>
      <point x="454" y="629"/>
      <point x="565" y="674" type="curve"/>
      <point x="562" y="674"/>
      <point x="559" y="674"/>
      <point x="556" y="674" type="curve" smooth="yes"/>
      <point x="397" y="674"/>
      <point x="239" y="574"/>
      <point x="239" y="396" type="curve" smooth="yes"/>
      <point x="239" y="218"/>
      <point x="396" y="118"/>
      <point x="552" y="118" type="curve" smooth="yes"/>
      <point x="556" y="118"/>
      <point x="560" y="118"/>
      <point x="563" y="118" type="curve"/>
      <point x="454" y="163"/>
      <point x="370" y="260"/>
    </contour>
  </outline>
</glyph>
<glyph name="uni2190.alt3" format="1">
  <advance width="465"/>
  <unicode hex="E0CC"/>
  <outline>
    <contour>
      <point x="296" y="397" type="curve"/>
      <point x="345" y="471"/>
      <point x="384" y="627"/>
      <point x="396" y="678" type="curve"/>
      <point x="394" y="679" type="line"/>
      <point x="303" y="589"/>
      <point x="162" y="476"/>
      <point x="36" y="398" type="curve"/>
      <point x="36" y="396" type="line"/>
      <point x="162" y="317"/>
      <point x="303" y="204"/>
      <point x="394" y="115" type="curve"/>
      <point x="396" y="115" type="line"/>
      <point x="387" y="169"/>
      <point x="347" y="314"/>
    </contour>
  </outline>
</glyph>
<glyph name="uni2190.alt4" format="1">
  <advance width="930"/>
  <unicode hex="E0CE"/>
  <outline>
    <contour>
      <point x="693" y="109" type="line"/>
      <point x="196" y="397" type="line"/>
      <point x="693" y="688" type="line"/>
      <point x="603" y="397" type="line"/>
    </contour>
    <contour>
      <point x="573" y="397" type="line"/>
      <point x="643" y="626" type="line"/>
      <point x="253" y="397" type="line"/>
    </contour>
  </outline>
</glyph>
<glyph name="A.2" format="1">
  <advance width="930"/>
  <outline>
    <contour>
      <point x="132" y="11" type="line"/>
      <point x="435" y="719" type="line" smooth="yes"/>
      <point x="450" y="754"/>
      <point x="475" y="752"/>
      <point x="490" y="744" type="curve" smooth="yes"/>
      <point x="505" y="736"/>
      <point x="514" y="716"/>
      <point x="507" y="691" type="curve" smooth="yes"/>
      <point x="325" y="48" type="line" smooth="yes"/>
      <point x="322" y="36"/>
      <point x="324" y="30"/>
      <point x="332" y="28" type="curve" smooth="yes"/>
      <point x="340" y="26"/>
      <point x="349" y="31"/>
      <point x="354" y="42" type="curve" smooth="yes"/>
      <point x="551" y="512" type="line" smooth="yes"/>
      <point x="565" y="545"/>
      <point x="586" y="545"/>
      <point x="602" y="537" type="curve" smooth="yes"/>
      <point x="616" y="529"/>
      <point x="629" y="509"/>
      <point x="623" y="479" type="curve" smooth="yes"/>
      <point x="539" y="44" type="line" smooth="yes"/>
      <point x="538" y="38"/>
      <point x="538" y="30"/>
      <point x="543" y="29" type="curve" smooth="yes"/>
      <point x="551" y="27"/>
      <point x="555" y="31"/>
      <point x="559" y="40" type="curve" smooth="yes"/>
      <point x="650" y="242" type="line" smooth="yes"/>
      <point x="662" y="269"/>
      <point x="687" y="269"/>
      <point x="701" y="261" type="curve" smooth="yes"/>
      <point x="719" y="251"/>
      <point x="722" y="229"/>
      <point x="717" y="206" type="curve" smooth="yes"/>
      <point x="679" y="38" type="line" smooth="yes"/>
      <point x="678" y="32"/>
      <point x="678" y="28"/>
      <point x="682" y="27" type="curve" smooth="yes"/>
      <point x="687" y="26"/>
      <point x="690" y="28"/>
      <point x="694" y="35" type="curve" smooth="yes"/>
      <point x="741" y="111" type="line"/>
      <point x="765" y="96" type="line"/>
      <point x="721" y="25" type="line" smooth="yes"/>
      <point x="706" y="0"/>
      <point x="688" y="-4"/>
      <point x="674" y="0" type="curve" smooth="yes"/>
      <point x="655" y="5"/>
      <point x="645" y="20"/>
      <point x="651" y="45" type="curve" smooth="yes"/>
      <point x="689" y="212" type="line" smooth="yes"/>
      <point x="691" y="222"/>
      <point x="694" y="231"/>
      <point x="688" y="235" type="curve" smooth="yes"/>
      <point x="683" y="238"/>
      <point x="679" y="235"/>
      <point x="677" y="230" type="curve" smooth="yes"/>
      <point x="585" y="28" type="line" smooth="yes"/>
      <point x="575" y="6"/>
      <point x="554" y="-2"/>
      <point x="538" y="1" type="curve" smooth="yes"/>
      <point x="521" y="4"/>
      <point x="504" y="18"/>
      <point x="510" y="49" type="curve" smooth="yes"/>
      <point x="595" y="485" type="line" smooth="yes"/>
      <point x="597" y="497"/>
      <point x="597" y="506"/>
      <point x="591" y="510" type="curve" smooth="yes"/>
      <point x="585" y="514"/>
      <point x="580" y="509"/>
      <point x="577" y="501" type="curve" smooth="yes"/>
      <point x="380" y="31" type="line" smooth="yes"/>
      <point x="369" y="4"/>
      <point x="345" y="-4"/>
      <point x="326" y="0" type="curve" smooth="yes"/>
      <point x="305" y="5"/>
      <point x="289" y="23"/>
      <point x="297" y="52" type="curve" smooth="yes"/>
      <point x="479" y="699" type="line" smooth="yes"/>
      <point x="482" y="708"/>
      <point x="483" y="715"/>
      <point x="477" y="718" type="curve" smooth="yes"/>
      <point x="471" y="721"/>
      <point x="465" y="718"/>
      <point x="461" y="708" type="curve" smooth="yes"/>
      <point x="157" y="0" type="line"/>
    </contour>
    <contour>
      <point x="414.0" y="750.0" type="move" name="top"/>
    </contour>
  </outline>
</glyph>
<glyph name="I.acc" format="1">
  <advance width="930"/>
  <outline>
    <contour>
      <point x="529" y="0" type="line"/>
      <point x="401" y="0" type="line"/>
      <point x="401" y="750" type="line"/>
      <point x="529" y="750" type="line"/>
    </contour>
    <contour>
      <point x="839" y="25" type="line"/>
      <point x="839" y="0" type="line"/>
      <point x="507" y="0" type="line"/>
      <point x="507" y="25" type="line"/>
    </contour>
    <contour>
      <point x="423" y="0" type="line"/>
      <point x="90" y="0" type="line"/>
      <point x="90" y="25" type="line"/>
      <point x="423" y="25" type="line"/>
    </contour>
    <contour>
      <point x="90" y="725" type="line"/>
      <point x="90" y="750" type="line"/>
      <point x="428" y="750" type="line"/>
      <point x="428" y="725" type="line"/>
    </contour>
    <contour>
      <point x="840" y="750" type="line"/>
      <point x="840" y="725" type="line"/>
      <point x="507" y="725" type="line"/>
      <point x="507" y="750" type="line"/>
    </contour>
    <contour>
      <point x="463" y="750" type="move" name="top"/>
    </contour>
  </outline>
</glyph>
<glyph name="V.2" format="1">
  <advance width="930"/>
  <outline>
    <contour>
      <point x="798" y="739" type="line"/>
      <point x="495" y="31" type="line" smooth="yes"/>
      <point x="480" y="-4"/>
      <point x="455" y="-2"/>
      <point x="440" y="6" type="curve" smooth="yes"/>
      <point x="425" y="14"/>
      <point x="416" y="34"/>
      <point x="423" y="59" type="curve" smooth="yes"/>
      <point x="605" y="702" type="line" smooth="yes"/>
      <point x="608" y="714"/>
      <point x="606" y="720"/>
      <point x="598" y="722" type="curve" smooth="yes"/>
      <point x="590" y="724"/>
      <point x="581" y="719"/>
      <point x="576" y="708" type="curve" smooth="yes"/>
      <point x="379" y="238" type="line" smooth="yes"/>
      <point x="365" y="205"/>
      <point x="344" y="205"/>
      <point x="328" y="213" type="curve" smooth="yes"/>
      <point x="314" y="221"/>
      <point x="301" y="241"/>
      <point x="307" y="271" type="curve" smooth="yes"/>
      <point x="391" y="706" type="line" smooth="yes"/>
      <point x="392" y="712"/>
      <point x="392" y="720"/>
      <point x="387" y="721" type="curve" smooth="yes"/>
      <point x="379" y="723"/>
      <point x="375" y="719"/>
      <point x="371" y="710" type="curve" smooth="yes"/>
      <point x="280" y="508" type="line" smooth="yes"/>
      <point x="268" y="481"/>
      <point x="243" y="481"/>
      <point x="229" y="489" type="curve" smooth="yes"/>
      <point x="211" y="499"/>
      <point x="208" y="521"/>
      <point x="213" y="544" type="curve" smooth="yes"/>
      <point x="251" y="712" type="line" smooth="yes"/>
      <point x="252" y="718"/>
      <point x="252" y="722"/>
      <point x="248" y="723" type="curve" smooth="yes"/>
      <point x="243" y="724"/>
      <point x="240" y="722"/>
      <point x="236" y="715" type="curve" smooth="yes"/>
      <point x="189" y="639" type="line"/>
      <point x="165" y="654" type="line"/>
      <point x="209" y="725" type="line" smooth="yes"/>
      <point x="224" y="750"/>
      <point x="242" y="754"/>
      <point x="256" y="750" type="curve" smooth="yes"/>
      <point x="275" y="745"/>
      <point x="285" y="730"/>
      <point x="279" y="705" type="curve" smooth="yes"/>
      <point x="241" y="538" type="line" smooth="yes"/>
      <point x="239" y="528"/>
      <point x="236" y="519"/>
      <point x="242" y="515" type="curve" smooth="yes"/>
      <point x="247" y="512"/>
      <point x="251" y="515"/>
      <point x="253" y="520" type="curve" smooth="yes"/>
      <point x="345" y="722" type="line" smooth="yes"/>
      <point x="355" y="744"/>
      <point x="376" y="752"/>
      <point x="392" y="749" type="curve" smooth="yes"/>
      <point x="409" y="746"/>
      <point x="426" y="732"/>
      <point x="420" y="701" type="curve" smooth="yes"/>
      <point x="335" y="265" type="line" smooth="yes"/>
      <point x="333" y="253"/>
      <point x="333" y="244"/>
      <point x="339" y="240" type="curve" smooth="yes"/>
      <point x="345" y="236"/>
      <point x="350" y="241"/>
      <point x="353" y="249" type="curve" smooth="yes"/>
      <point x="550" y="719" type="line" smooth="yes"/>
      <point x="561" y="746"/>
      <point x="585" y="754"/>
      <point x="604" y="750" type="curve" smooth="yes"/>
      <point x="625" y="745"/>
      <point x="641" y="727"/>
      <point x="633" y="698" type="curve" smooth="yes"/>
      <point x="451" y="51" type="line" smooth="yes"/>
      <point x="448" y="42"/>
      <point x="447" y="35"/>
      <point x="453" y="32" type="curve" smooth="yes"/>
      <point x="459" y="29"/>
      <point x="465" y="32"/>
      <point x="469" y="42" type="curve" smooth="yes"/>
      <point x="773" y="750" type="line"/>
    </contour>
  </outline>
</glyph>
<glyph name="WWW" format="1">
  <advance width="1860"/>
  <outline>
    <contour>
      <point x="60" y="725" type="line"/>
      <point x="1800" y="725" type="line"/>
      <point x="1800" y="750" type="line"/>
      <point x="60" y="750" type="line"/>
    </contour>
    <contour>
      <point x="371" y="0" type="line"/>
      <point x="490" y="750" type="line"/>
      <point x="459" y="750" type="line"/>
      <point x="340" y="0" type="line"/>
    </contour>
    <contour>
      <point x="343" y="0" type="line"/>
      <point x="268" y="750" type="line"/>
      <point x="141" y="750" type="line"/>
      <point x="216" y="0" type="line"/>
    </contour>
    <contour>
      <point x="595" y="0" type="line"/>
      <point x="490" y="750" type="line"/>
      <point x="426" y="396" type="line"/>
      <point x="478" y="0" type="line"/>
    </contour>
    <contour>
      <point x="1372" y="0" type="line"/>
      <point x="1491" y="750" type="line"/>
      <point x="1460" y="750" type="line"/>
      <point x="1341" y="0" type="line"/>
    </contour>
    <contour>
      <point x="1624" y="0" type="line"/>
      <point x="1711" y="730" type="line"/>
      <point x="1680" y="730" type="line"/>
      <point x="1593" y="0" type="line"/>
    </contour>
    <contour>
      <point x="1596" y="0" type="line"/>
      <point x="1491" y="750" type="line"/>
      <point x="1427" y="396" type="line"/>
      <point x="1479" y="0" type="line"/>
    </contour>
    <contour>
      <point x="622" y="0" type="line"/>
      <point x="741" y="750" type="line"/>
      <point x="710" y="750" type="line"/>
      <point x="591" y="0" type="line"/>
    </contour>
    <contour>
      <point x="846" y="0" type="line"/>
      <point x="741" y="750" type="line"/>
      <point x="677" y="396" type="line"/>
      <point x="729" y="0" type="line"/>
    </contour>
    <contour>
      <point x="873" y="0" type="line"/>
      <point x="992" y="750" type="line"/>
      <point x="961" y="750" type="line"/>
      <point x="842" y="0" type="line"/>
    </contour>
    <contour>
      <point x="1097" y="0" type="line"/>
      <point x="992" y="750" type="line"/>
      <point x="928" y="396" type="line"/>
      <point x="980" y="0" type="line"/>
    </contour>
    <contour>
      <point x="1123" y="0" type="line"/>
      <point x="1242" y="750" type="line"/>
      <point x="1211" y="750" type="line"/>
      <point x="1092" y="0" type="line"/>
    </contour>
    <contour>
      <point x="1347" y="0" type="line"/>
      <point x="1242" y="750" type="line"/>
      <point x="1178" y="396" type="line"/>
      <point x="1230" y="0" type="line"/>
    </contour>
  </outline>
</glyph>
<glyph name="europe" format="1">
  <advance width="1378"/>
  <outline>
    <contour>
      <point x="100" y="0" type="line"/>
      <point x="1278" y="0" type="line"/>
      <point x="1278" y="750" type="line"/>
      <point x="100" y="750" type="line"/>
    </contour>
    <contour>
      <point x="689" y="694" type="line"/>
      <point x="702" y="650" type="line"/>
      <point x="747" y="652" type="line"/>
      <point x="710" y="626" type="line"/>
      <point x="725" y="584" type="line"/>
      <point x="689" y="611" type="line"/>
      <point x="653" y="584" type="line"/>
      <point x="668" y="626" type="line"/>
      <point x="631" y="652" type="line"/>
      <point x="676" y="650" type="line"/>
    </contour>
    <contour>
      <point x="530" y="652" type="line"/>
      <point x="563" y="620" type="line"/>
      <point x="601" y="644" type="line"/>
      <point x="582" y="603" type="line"/>
      <point x="616" y="574" type="line"/>
      <point x="572" y="579" type="line"/>
      <point x="554" y="538" type="line"/>
      <point x="546" y="582" type="line"/>
      <point x="500" y="586" type="line"/>
      <point x="541" y="607" type="line"/>
    </contour>
    <contour>
      <point x="413" y="535" type="line"/>
      <point x="458" y="524" type="line"/>
      <point x="479" y="564" type="line"/>
      <point x="483" y="519" type="line"/>
      <point x="527" y="511" type="line"/>
      <point x="486" y="493" type="line"/>
      <point x="491" y="449" type="line"/>
      <point x="462" y="483" type="line"/>
      <point x="420" y="464" type="line"/>
      <point x="445" y="502" type="line"/>
    </contour>
    <contour>
      <point x="370" y="376" type="line"/>
      <point x="414" y="388" type="line"/>
      <point x="412" y="434" type="line"/>
      <point x="439" y="396" type="line"/>
      <point x="481" y="411" type="line"/>
      <point x="454" y="376" type="line"/>
      <point x="481" y="340" type="line"/>
      <point x="439" y="355" type="line"/>
      <point x="412" y="318" type="line"/>
      <point x="414" y="363" type="line"/>
    </contour>
    <contour>
      <point x="413" y="216" type="line"/>
      <point x="445" y="249" type="line"/>
      <point x="420" y="288" type="line"/>
      <point x="462" y="269" type="line"/>
      <point x="491" y="303" type="line"/>
      <point x="486" y="258" type="line"/>
      <point x="527" y="240" type="line"/>
      <point x="483" y="233" type="line"/>
      <point x="479" y="187" type="line"/>
      <point x="458" y="227" type="line"/>
    </contour>
    <contour>
      <point x="530" y="100" type="line"/>
      <point x="541" y="144" type="line"/>
      <point x="500" y="165" type="line"/>
      <point x="546" y="169" type="line"/>
      <point x="554" y="213" type="line"/>
      <point x="572" y="172" type="line"/>
      <point x="616" y="177" type="line"/>
      <point x="582" y="149" type="line"/>
      <point x="601" y="107" type="line"/>
      <point x="563" y="131" type="line"/>
    </contour>
    <contour>
      <point x="689" y="57" type="line"/>
      <point x="676" y="101" type="line"/>
      <point x="631" y="99" type="line"/>
      <point x="668" y="126" type="line"/>
      <point x="653" y="167" type="line"/>
      <point x="689" y="141" type="line"/>
      <point x="725" y="167" type="line"/>
      <point x="710" y="126" type="line"/>
      <point x="747" y="99" type="line"/>
      <point x="702" y="101" type="line"/>
    </contour>
    <contour>
      <point x="848" y="100" type="line"/>
      <point x="815" y="131" type="line"/>
      <point x="777" y="107" type="line"/>
      <point x="796" y="149" type="line"/>
      <point x="762" y="177" type="line"/>
      <point x="806" y="172" type="line"/>
      <point x="824" y="213" type="line"/>
      <point x="832" y="169" type="line"/>
      <point x="878" y="165" type="line"/>
      <point x="837" y="144" type="line"/>
    </contour>
    <contour>
      <point x="965" y="216" type="line"/>
      <point x="920" y="227" type="line"/>
      <point x="899" y="187" type="line"/>
      <point x="895" y="233" type="line"/>
      <point x="851" y="240" type="line"/>
      <point x="892" y="258" type="line"/>
      <point x="887" y="303" type="line"/>
      <point x="916" y="269" type="line"/>
      <point x="958" y="288" type="line"/>
      <point x="933" y="249" type="line"/>
    </contour>
    <contour>
      <point x="1008" y="376" type="line"/>
      <point x="964" y="363" type="line"/>
      <point x="966" y="318" type="line"/>
      <point x="939" y="355" type="line"/>
      <point x="897" y="340" type="line"/>
      <point x="924" y="376" type="line"/>
      <point x="897" y="411" type="line"/>
      <point x="939" y="396" type="line"/>
      <point x="966" y="434" type="line"/>
      <point x="964" y="388" type="line"/>
    </contour>
    <contour>
      <point x="965" y="535" type="line"/>
      <point x="933" y="502" type="line"/>
      <point x="958" y="464" type="line"/>
      <point x="916" y="483" type="line"/>
      <point x="887" y="449" type="line"/>
      <point x="892" y="493" type="line"/>
      <point x="851" y="511" type="line"/>
      <point x="895" y="519" type="line"/>
      <point x="899" y="564" type="line"/>
      <point x="920" y="524" type="line"/>
    </contour>
    <contour>
      <point x="848" y="652" type="line"/>
      <point x="837" y="607" type="line"/>
      <point x="878" y="586" type="line"/>
      <point x="832" y="582" type="line"/>
      <point x="824" y="538" type="line"/>
      <point x="806" y="579" type="line"/>
      <point x="762" y="574" type="line"/>
      <point x="796" y="603" type="line"/>
      <point x="777" y="644" type="line"/>
      <point x="815" y="620" type="line"/>
    </contour>
  </outline>
</glyph>
<glyph name="o.2" format="1">
  <advance width="930"/>
  <outline>
    <contour>
      <point x="563" y="723" type="line"/>
      <point x="553" y="729"/>
      <point x="541" y="733"/>
      <point x="525" y="736" type="curve" smooth="yes"/>
      <point x="507" y="739"/>
      <point x="484" y="741"/>
      <point x="452" y="741" type="curve" smooth="yes"/>
      <point x="406" y="741"/>
      <point x="355" y="736"/>
      <point x="315" y="724" type="curve" smooth="yes"/>
      <point x="284" y="715"/>
      <point x="255" y="703"/>
      <point x="255" y="681" type="curve" smooth="yes"/>
      <point x="255" y="665"/>
      <point x="274" y="658"/>
      <point x="301" y="653" type="curve" smooth="yes"/>
      <point x="340" y="645"/>
      <point x="403" y="642"/>
      <point x="496" y="642" type="curve" smooth="yes"/>
      <point x="614" y="642"/>
      <point x="690" y="639"/>
      <point x="735" y="629" type="curve" smooth="yes"/>
      <point x="792" y="616"/>
      <point x="807" y="594"/>
      <point x="807" y="562" type="curve" smooth="yes"/>
      <point x="807" y="528"/>
      <point x="796" y="506"/>
      <point x="737" y="495" type="curve" smooth="yes"/>
      <point x="690" y="486"/>
      <point x="608" y="484"/>
      <point x="467" y="484" type="curve" smooth="yes"/>
      <point x="325" y="484"/>
      <point x="236" y="482"/>
      <point x="184" y="473" type="curve" smooth="yes"/>
      <point x="144" y="466"/>
      <point x="125" y="456"/>
      <point x="125" y="433" type="curve" smooth="yes"/>
      <point x="125" y="413"/>
      <point x="146" y="405"/>
      <point x="185" y="398" type="curve" smooth="yes"/>
      <point x="237" y="388"/>
      <point x="325" y="384"/>
      <point x="465" y="384" type="curve" smooth="yes"/>
      <point x="616" y="384"/>
      <point x="705" y="381"/>
      <point x="757" y="373" type="curve" smooth="yes"/>
      <point x="822" y="361"/>
      <point x="834" y="339"/>
      <point x="834" y="308" type="curve" smooth="yes"/>
      <point x="834" y="273"/>
      <point x="821" y="251"/>
      <point x="758" y="239" type="curve" smooth="yes"/>
      <point x="707" y="230"/>
      <point x="619" y="229"/>
      <point x="473" y="229" type="curve" smooth="yes"/>
      <point x="351" y="229"/>
      <point x="268" y="231"/>
      <point x="216" y="225" type="curve" smooth="yes"/>
      <point x="179" y="221"/>
      <point x="156" y="214"/>
      <point x="156" y="187" type="curve" smooth="yes"/>
      <point x="156" y="164"/>
      <point x="178" y="154"/>
      <point x="211" y="148" type="curve" smooth="yes"/>
      <point x="256" y="139"/>
      <point x="325" y="137"/>
      <point x="421" y="137" type="curve" smooth="yes"/>
      <point x="524" y="137"/>
      <point x="593" y="136"/>
      <point x="636" y="130" type="curve" smooth="yes"/>
      <point x="693" y="121"/>
      <point x="707" y="102"/>
      <point x="707" y="75" type="curve" smooth="yes"/>
      <point x="707" y="46"/>
      <point x="677" y="19"/>
      <point x="624" y="2" type="curve" smooth="yes"/>
      <point x="579" y="-12"/>
      <point x="521" y="-20"/>
      <point x="463" y="-20" type="curve" smooth="yes"/>
      <point x="431" y="-20"/>
      <point x="402" y="-18"/>
      <point x="378" y="-14" type="curve" smooth="yes"/>
      <point x="353" y="-11"/>
      <point x="334" y="-6"/>
      <point x="322" y="-2" type="curve"/>
      <point x="332" y="25" type="line"/>
      <point x="342" y="22"/>
      <point x="360" y="18"/>
      <point x="382" y="15" type="curve" smooth="yes"/>
      <point x="405" y="11"/>
      <point x="433" y="9"/>
      <point x="463" y="9" type="curve" smooth="yes"/>
      <point x="517" y="9"/>
      <point x="573" y="16"/>
      <point x="615" y="30" type="curve" smooth="yes"/>
      <point x="649" y="40"/>
      <point x="678" y="54"/>
      <point x="678" y="75" type="curve" smooth="yes"/>
      <point x="678" y="92"/>
      <point x="658" y="97"/>
      <point x="631" y="101" type="curve" smooth="yes"/>
      <point x="589" y="107"/>
      <point x="522" y="108"/>
      <point x="421" y="108" type="curve" smooth="yes"/>
      <point x="323" y="108"/>
      <point x="252" y="110"/>
      <point x="206" y="119" type="curve" smooth="yes"/>
      <point x="148" y="131"/>
      <point x="127" y="153"/>
      <point x="127" y="187" type="curve" smooth="yes"/>
      <point x="127" y="225"/>
      <point x="147" y="246"/>
      <point x="213" y="254" type="curve" smooth="yes"/>
      <point x="266" y="260"/>
      <point x="349" y="257"/>
      <point x="473" y="257" type="curve" smooth="yes"/>
      <point x="617" y="257"/>
      <point x="703" y="259"/>
      <point x="753" y="268" type="curve" smooth="yes"/>
      <point x="790" y="274"/>
      <point x="805" y="284"/>
      <point x="805" y="308" type="curve" smooth="yes"/>
      <point x="805" y="329"/>
      <point x="789" y="338"/>
      <point x="752" y="344" type="curve" smooth="yes"/>
      <point x="701" y="353"/>
      <point x="613" y="355"/>
      <point x="465" y="355" type="curve" smooth="yes"/>
      <point x="323" y="355"/>
      <point x="233" y="359"/>
      <point x="179" y="369" type="curve" smooth="yes"/>
      <point x="111" y="382"/>
      <point x="96" y="405"/>
      <point x="96" y="433" type="curve" smooth="yes"/>
      <point x="96" y="466"/>
      <point x="111" y="489"/>
      <point x="179" y="501" type="curve" smooth="yes"/>
      <point x="232" y="510"/>
      <point x="322" y="513"/>
      <point x="467" y="513" type="curve" smooth="yes"/>
      <point x="605" y="513"/>
      <point x="686" y="515"/>
      <point x="732" y="523" type="curve" smooth="yes"/>
      <point x="766" y="530"/>
      <point x="778" y="540"/>
      <point x="778" y="562" type="curve" smooth="yes"/>
      <point x="778" y="583"/>
      <point x="762" y="593"/>
      <point x="729" y="600" type="curve" smooth="yes"/>
      <point x="685" y="610"/>
      <point x="611" y="613"/>
      <point x="496" y="613" type="curve" smooth="yes"/>
      <point x="401" y="613"/>
      <point x="336" y="616"/>
      <point x="295" y="624" type="curve" smooth="yes"/>
      <point x="241" y="635"/>
      <point x="226" y="655"/>
      <point x="226" y="681" type="curve" smooth="yes"/>
      <point x="226" y="711"/>
      <point x="255" y="736"/>
      <point x="307" y="751" type="curve" smooth="yes"/>
      <point x="349" y="764"/>
      <point x="403" y="770"/>
      <point x="452" y="770" type="curve" smooth="yes"/>
      <point x="486" y="770"/>
      <point x="511" y="768"/>
      <point x="530" y="764" type="curve" smooth="yes"/>
      <point x="550" y="761"/>
      <point x="565" y="755"/>
      <point x="577" y="749" type="curve"/>
    </contour>
  </outline>
</glyph>
